<?xml version="1.0" encoding="utf-8"?>
<!-- Generator: Adobe Illustrator 27.5.0, SVG Export Plug-In . SVG Version: 6.00 Build 0)  -->
<svg version="1.1" id="Ñëîé_1" xmlns="http://www.w3.org/2000/svg" xmlns:xlink="http://www.w3.org/1999/xlink" x="0px" y="0px"
	 viewBox="0 0 600 450" style="enable-background:new 0 0 600 450;" xml:space="preserve">
<g>
	
		<radialGradient id="SVGID_1_" cx="141.0078" cy="153.0036" r="265.165" fx="-109.0539" fy="64.7899" gradientUnits="userSpaceOnUse">
		<stop  offset="0" style="stop-color:#2B237C"/>
		<stop  offset="1" style="stop-color:#180D5B"/>
	</radialGradient>
	<rect x="0" y="0" style="fill:url(#SVGID_1_);" width="600" height="450"/>
</g>
<radialGradient id="SVGID_00000115497908446756866010000016349580432576510610_" cx="-2130.3652" cy="-319.7945" r="184.3703" gradientTransform="matrix(-0.866 0.5 0.866 0.5 -1277.7692 1536.9978)" gradientUnits="userSpaceOnUse">
	<stop  offset="0" style="stop-color:#42E8E0"/>
	<stop  offset="0.1539" style="stop-color:#33AEB9"/>
	<stop  offset="0.3113" style="stop-color:#267A95"/>
	<stop  offset="0.4663" style="stop-color:#1B5078"/>
	<stop  offset="0.6156" style="stop-color:#132E61"/>
	<stop  offset="0.7574" style="stop-color:#0D1651"/>
	<stop  offset="0.8889" style="stop-color:#090847"/>
	<stop  offset="1" style="stop-color:#080344"/>
</radialGradient>
<ellipse style="opacity:0.5;fill:url(#SVGID_00000115497908446756866010000016349580432576510610_);" cx="290.185" cy="311.918" rx="225.803" ry="130.368"/>
<path style="opacity:0.4;fill:#0B0244;" d="M260.916,236.815c-0.842-0.73-2.176-1.128-3.214-0.958
	c-3.517,0.576-11.597,2.802-16.388,11.301c-5.62,9.972,1.369,17.656,2.84,19.108c-2.144,2.593-3.827,4.268-4.524,4.933
	c-2.184-1.411-4.494-2.93-6.905-4.549c-3.908-2.602-8.04-5.485-12.367-8.558c-1.07-0.775-2.154-1.561-3.251-2.356
	c-0.549-0.398-1.101-0.798-1.656-1.201c-0.546-0.407-1.095-0.817-1.647-1.229c-1.104-0.824-2.22-1.657-3.348-2.498
	c-1.079-0.829-2.169-1.666-3.267-2.509c1.203-1.009,3.545-3.028,6.418-5.756c2.429,0.298,15.389,1.425,21.294-7.512
	c5.004-7.573,1.016-13.358-1.122-15.65c-0.625-0.67-1.758-1.107-2.731-1.052c-3.295,0.187-11.037,1.358-16.986,7.965
	c-7.019,7.795-2.047,14.729-1.027,15.989c-2.806,2.663-5.098,4.64-6.31,5.659c-2.141-1.635-4.239-3.329-6.388-5.033
	c-1.148-0.898-2.241-1.827-3.369-2.749c-1.118-0.926-2.257-1.851-3.374-2.79c-3.636-3.095-7.276-6.252-10.786-9.462
	c0.615-0.382,1.642-1.029,2.977-1.902c1.462-0.957,3.298-2.191,5.349-3.632c2.02,0.377,14.212,2.275,21.065-5.298
	c5.737-6.339,2.802-11.65,1.116-13.787c-0.493-0.625-1.494-1.075-2.413-1.085c-3.113-0.034-10.529,0.53-17.019,5.966
	c-7.491,6.275-4.114,12.512-3.233,13.87c-3.849,2.707-6.921,4.66-8.253,5.489c-0.625-0.574-1.256-1.147-1.871-1.725
	c-5.851-5.439-11.358-10.984-16.35-16.448c0.916-0.426,3.607-1.74,7.01-3.967c0.756-0.495,1.556-1.051,2.371-1.637
	c1.942,0.269,11.897,1.283,16.773-5.404c4.151-5.691,1.255-10.157-0.326-11.935c-0.462-0.519-1.327-0.869-2.084-0.842
	c-2.566,0.092-8.62,0.868-13.472,5.809c-5.579,5.683-2.282,10.913-1.419,12.077c-4.345,3.119-8.014,4.941-9.214,5.504
	c-2.089-2.297-4.095-4.579-5.98-6.83c-1.311-1.56-2.566-3.104-3.77-4.629c0.016-0.018,0.036-0.035,0.038-0.06
	c0.007-0.102-0.122-0.216-0.287-0.258c-0.419-0.533-0.832-1.064-1.238-1.592c0.469-0.711,2.52-3.829,5.006-7.743
	c2.047,0.06,11.363-0.087,14.14-7.509c2.395-6.4-1.452-10.737-3.383-12.416c-0.564-0.491-1.46-0.759-2.157-0.646
	c-2.365,0.382-7.8,1.866-11.041,7.563c-3.78,6.643,0.817,11.783,1.84,12.803c-2.238,3.522-4.118,6.393-4.802,7.432
	c-3.918-5.133-7.203-9.995-9.848-14.368c-0.485-0.792-0.96-1.568-1.424-2.326c-0.461-0.758-0.83-1.501-1.234-2.225
	c-0.107-0.198-0.208-0.382-0.314-0.577c0.956-0.577,4.372-3.193,1.329-9.75c-2.686-5.789-7.13-8.914-9.062-10.059
	c-0.57-0.338-1.298-0.435-1.755-0.233c-1.563,0.689-4.669,2.871-2.669,8.936c2.352,7.131,10.136,10.53,11.658,11.135
	c0.099,0.189,0.193,0.367,0.293,0.559c0.391,0.726,0.747,1.472,1.195,2.233c0.451,0.761,0.912,1.54,1.383,2.335
	c2.852,4.874,6.491,10.362,10.908,16.164c-2.473-0.596-8.586-2.063-15.607-3.699c-0.905-1.029-5.626-5.787-17.538-8.419
	c-10.272-2.269-15.731-1.182-17.723-0.549c-0.588,0.187-0.739,0.677-0.366,1.181c1.277,1.723,5.267,5.76,16.053,8.766
	c12.493,3.481,18.358,0.176,19.521-0.613c7.419,1.728,13.834,3.271,16.014,3.797c1.242,1.621,2.541,3.265,3.905,4.928
	c2.281,2.792,4.734,5.632,7.321,8.493c-1.623,0.139-6.12,0.486-12.311,0.677c-1.255-0.895-8.031-5.295-20.314-5.566
	c-10.476-0.231-14.835,2.245-16.3,3.416c-0.433,0.345-0.311,0.935,0.292,1.421c2.063,1.662,7.797,5.327,19.126,6.276
	c13.129,1.099,16.68-3.989,17.312-5.145c6.366-0.194,10.968-0.554,12.543-0.689c4.536,4.994,9.492,10.048,14.724,15.016
	c1.138,1.092,2.297,2.177,3.468,3.257c-1.475,0.218-5.947,0.859-12.148,1.579c-1.668-0.956-10.055-5.298-23.096-4.192
	c-11.208,0.951-15.175,4.386-16.417,5.941c-0.367,0.459-0.078,1.142,0.695,1.645c2.644,1.723,9.736,5.384,22.045,5.182
	c14.527-0.239,16.752-6.905,17.045-8.18c6.376-0.74,10.931-1.398,12.29-1.599c2.972,2.73,6.022,5.422,9.071,8.072
	c1.108,0.951,2.238,1.888,3.348,2.826c1.12,0.934,2.205,1.876,3.345,2.785c2.26,1.828,4.463,3.649,6.723,5.397
	c0.28,0.22,0.555,0.434,0.834,0.653c-1.031,0.373-3.953,1.387-8.585,2.685c-2.015-0.93-12.463-5.264-26.516-2.315
	c-12.01,2.52-15.389,7.187-16.313,9.231c-0.273,0.604,0.236,1.4,1.224,1.92c3.381,1.778,12.18,5.376,25.607,3.633
	c16.051-2.083,16.421-10.66,16.369-12.089c4.709-1.319,7.658-2.347,8.664-2.711c0.685,0.536,1.373,1.076,2.05,1.606
	c1.121,0.853,2.232,1.699,3.33,2.535c0.549,0.418,1.096,0.834,1.639,1.248c0.553,0.409,1.102,0.815,1.648,1.219
	c1.093,0.808,2.172,1.605,3.237,2.393c4.309,3.122,8.428,6.051,12.327,8.698c2.623,1.797,5.126,3.47,7.479,5.016
	c-0.986,0.4-4.009,1.588-8.662,3.101c-1.671-0.759-13.597-5.773-29.271-2.004c-12.962,3.118-16.378,8.415-17.267,10.722
	c-0.262,0.681,0.339,1.558,1.448,2.113c3.794,1.901,13.608,5.697,28.163,3.412c17.083-2.682,17.299-11.975,17.169-13.822
	c4.876-1.58,8.003-2.817,8.923-3.192c4.4,2.882,8.25,5.298,11.303,7.171c2.394,1.468,4.302,2.604,5.617,3.373
	c1.307,0.769,2.041,1.18,2.041,1.18l1.461-1.336c0,0-0.683-0.375-1.984-1.125c-1.298-0.744-3.195-1.852-5.582-3.287
	c-3.178-1.912-7.232-4.409-11.882-7.406c0.685-0.651,2.396-2.348,4.58-4.99c2.241,0.097,17.056,0.29,21.309-11.219
	C269.549,245.767,263.798,239.312,260.916,236.815z"/>
<g>
	<g style="opacity:0.7;">
		
			<linearGradient id="SVGID_00000110471523184302357640000009942411541133463191_" gradientUnits="userSpaceOnUse" x1="-445.3844" y1="474.2504" x2="-384.9151" y2="474.2504" gradientTransform="matrix(-0.8519 0.5237 0.5237 0.8519 -404.4604 87.987)">
			<stop  offset="0" style="stop-color:#42E8E0"/>
			<stop  offset="0.1507" style="stop-color:#43E3E0"/>
			<stop  offset="0.3285" style="stop-color:#45D5DF"/>
			<stop  offset="0.5199" style="stop-color:#49BDDD"/>
			<stop  offset="0.7209" style="stop-color:#4E9CDB"/>
			<stop  offset="0.9274" style="stop-color:#5472D8"/>
			<stop  offset="1" style="stop-color:#5761D7"/>
		</linearGradient>
		<path style="fill:url(#SVGID_00000110471523184302357640000009942411541133463191_);" d="M230.895,271.063
			c0,0-8.612,19.005-35.151,19.309c-20.333,0.233-28.82-8.477-31.677-12.564c-0.835-1.194-0.725-2.799,0.267-3.866
			c3.363-3.615,12.795-11.581,31.963-13.586C221.315,257.738,230.895,271.063,230.895,271.063z"/>
	</g>
	<g style="opacity:0.7;">
		
			<linearGradient id="SVGID_00000062882290185530076500000012664617677592082568_" gradientUnits="userSpaceOnUse" x1="353.107" y1="369.4076" x2="413.5764" y2="369.4076" gradientTransform="matrix(0.9583 -0.2858 0.2858 0.9583 -190.4149 -7.8432)">
			<stop  offset="0" style="stop-color:#42E8E0"/>
			<stop  offset="0.1507" style="stop-color:#43E3E0"/>
			<stop  offset="0.3285" style="stop-color:#45D5DF"/>
			<stop  offset="0.5199" style="stop-color:#49BDDD"/>
			<stop  offset="0.7209" style="stop-color:#4E9CDB"/>
			<stop  offset="0.9274" style="stop-color:#5472D8"/>
			<stop  offset="1" style="stop-color:#5761D7"/>
		</linearGradient>
		<path style="fill:url(#SVGID_00000062882290185530076500000012664617677592082568_);" d="M257.674,259.089
			c0,0,19.906,6.252,37.827-13.325c13.73-14.999,12.897-27.132,11.756-31.986c-0.333-1.419-1.602-2.406-3.06-2.378
			c-4.937,0.096-17.162,1.815-31.436,14.764C254.13,243.064,257.674,259.089,257.674,259.089z"/>
	</g>
	<g style="opacity:0.7;">
		
			<linearGradient id="SVGID_00000011015604866492992850000017398625429669258390_" gradientUnits="userSpaceOnUse" x1="155.2991" y1="301.756" x2="208.0658" y2="301.756" gradientTransform="matrix(0.988 -0.1542 0.1542 0.988 40.4747 -75.1227)">
			<stop  offset="0" style="stop-color:#42E8E0"/>
			<stop  offset="0.1507" style="stop-color:#43E3E0"/>
			<stop  offset="0.3285" style="stop-color:#45D5DF"/>
			<stop  offset="0.5199" style="stop-color:#49BDDD"/>
			<stop  offset="0.7209" style="stop-color:#4E9CDB"/>
			<stop  offset="0.9274" style="stop-color:#5472D8"/>
			<stop  offset="1" style="stop-color:#5761D7"/>
		</linearGradient>
		<path style="fill:url(#SVGID_00000011015604866492992850000017398625429669258390_);" d="M242.385,211.523
			c0,0,16.478,7.743,34.272-7.079c13.633-11.356,14.337-21.945,13.921-26.276c-0.122-1.266-1.103-2.269-2.366-2.415
			c-4.28-0.497-15.052-0.446-28.915,9.074C241.203,197.251,242.385,211.523,242.385,211.523z"/>
	</g>
	<g style="opacity:0.7;">
		
			<linearGradient id="SVGID_00000051344525865377505240000014726364757417462453_" gradientUnits="userSpaceOnUse" x1="14.9787" y1="264.8012" x2="63.0407" y2="264.8012" gradientTransform="matrix(0.9982 -0.0604 0.0604 0.9982 202.6778 -102.3526)">
			<stop  offset="0" style="stop-color:#42E8E0"/>
			<stop  offset="0.1507" style="stop-color:#43E3E0"/>
			<stop  offset="0.3285" style="stop-color:#45D5DF"/>
			<stop  offset="0.5199" style="stop-color:#49BDDD"/>
			<stop  offset="0.7209" style="stop-color:#4E9CDB"/>
			<stop  offset="0.9274" style="stop-color:#5472D8"/>
			<stop  offset="1" style="stop-color:#5761D7"/>
		</linearGradient>
		<path style="fill:url(#SVGID_00000051344525865377505240000014726364757417462453_);" d="M234.317,172.531
			c0,0,14.277,8.437,31.687-3.477c13.338-9.128,14.886-18.669,14.88-22.632c-0.002-1.158-0.805-2.152-1.938-2.394
			c-3.838-0.818-13.611-1.697-27,5.745C234.471,159.487,234.317,172.531,234.317,172.531z"/>
	</g>
	<g style="opacity:0.7;">
		
			<linearGradient id="SVGID_00000179616106509091014650000001458465404765014456_" gradientUnits="userSpaceOnUse" x1="109.4456" y1="228.422" x2="150.0439" y2="228.422" gradientTransform="matrix(0.992 -0.1264 0.1264 0.992 91.9587 -85.0939)">
			<stop  offset="0" style="stop-color:#42E8E0"/>
			<stop  offset="0.1507" style="stop-color:#43E3E0"/>
			<stop  offset="0.3285" style="stop-color:#45D5DF"/>
			<stop  offset="0.5199" style="stop-color:#49BDDD"/>
			<stop  offset="0.7209" style="stop-color:#4E9CDB"/>
			<stop  offset="0.9274" style="stop-color:#5472D8"/>
			<stop  offset="1" style="stop-color:#5761D7"/>
		</linearGradient>
		<path style="fill:url(#SVGID_00000179616106509091014650000001458465404765014456_);" d="M230.628,137.29
			c0,0,12.506,6.312,26.512-4.704c10.731-8.439,11.502-16.568,11.275-19.908c-0.066-0.976-0.799-1.769-1.768-1.909
			c-3.281-0.475-11.567-0.668-22.435,6.353C230.027,126.287,230.628,137.29,230.628,137.29z"/>
	</g>
	<g style="opacity:0.7;">
		
			<linearGradient id="SVGID_00000118375714880228183190000016120993616543584679_" gradientUnits="userSpaceOnUse" x1="338.9115" y1="218.4048" x2="379.5097" y2="218.4048" gradientTransform="matrix(0.959 -0.2835 0.2835 0.959 -163.474 -15.673)">
			<stop  offset="0" style="stop-color:#42E8E0"/>
			<stop  offset="0.1507" style="stop-color:#43E3E0"/>
			<stop  offset="0.3285" style="stop-color:#45D5DF"/>
			<stop  offset="0.5199" style="stop-color:#49BDDD"/>
			<stop  offset="0.7209" style="stop-color:#4E9CDB"/>
			<stop  offset="0.9274" style="stop-color:#5472D8"/>
			<stop  offset="1" style="stop-color:#5761D7"/>
		</linearGradient>
		<path style="fill:url(#SVGID_00000118375714880228183190000016120993616543584679_);" d="M226.21,106.999
			c0,0,13.355,4.23,25.418-8.885c9.242-10.048,8.703-18.195,7.945-21.456c-0.221-0.953-1.072-1.618-2.05-1.602
			c-3.315,0.057-11.525,1.191-21.13,9.861C223.857,96.234,226.21,106.999,226.21,106.999z"/>
	</g>
	<g style="opacity:0.7;">
		
			<linearGradient id="SVGID_00000179632141725966426910000014886412256095599545_" gradientUnits="userSpaceOnUse" x1="-411.6897" y1="405.0521" x2="-356.9567" y2="405.0521" gradientTransform="matrix(-0.8686 0.4955 0.4955 0.8686 -350.6795 65.1593)">
			<stop  offset="0" style="stop-color:#42E8E0"/>
			<stop  offset="0.1507" style="stop-color:#43E3E0"/>
			<stop  offset="0.3285" style="stop-color:#45D5DF"/>
			<stop  offset="0.5199" style="stop-color:#49BDDD"/>
			<stop  offset="0.7209" style="stop-color:#4E9CDB"/>
			<stop  offset="0.9274" style="stop-color:#5472D8"/>
			<stop  offset="1" style="stop-color:#5761D7"/>
		</linearGradient>
		<path style="fill:url(#SVGID_00000179632141725966426910000014886412256095599545_);" d="M214.098,224.356
			c0,0-8.355,16.937-32.372,16.425c-18.401-0.392-25.82-8.523-28.284-12.305c-0.72-1.105-0.573-2.553,0.357-3.489
			c3.15-3.171,11.918-10.097,29.318-11.343C205.827,212.017,214.098,224.356,214.098,224.356z"/>
	</g>
	<g style="opacity:0.7;">
		
			<linearGradient id="SVGID_00000139266881680059090970000012458617850599144377_" gradientUnits="userSpaceOnUse" x1="-215.6975" y1="283.0768" x2="-168.9113" y2="283.0768" gradientTransform="matrix(-0.9328 0.3604 0.3604 0.9328 -106.4048 -14.3074)">
			<stop  offset="0" style="stop-color:#42E8E0"/>
			<stop  offset="0.1507" style="stop-color:#43E3E0"/>
			<stop  offset="0.3285" style="stop-color:#45D5DF"/>
			<stop  offset="0.5199" style="stop-color:#49BDDD"/>
			<stop  offset="0.7209" style="stop-color:#4E9CDB"/>
			<stop  offset="0.9274" style="stop-color:#5472D8"/>
			<stop  offset="1" style="stop-color:#5761D7"/>
		</linearGradient>
		<path style="fill:url(#SVGID_00000139266881680059090970000012458617850599144377_);" d="M200.848,182.438
			c0,0-9.221,13.251-29.456,9.756c-15.503-2.677-20.738-10.496-22.338-14.007c-0.468-1.026-0.159-2.231,0.746-2.904
			c3.066-2.279,11.361-7.015,26.227-5.85C195.429,170.954,200.848,182.438,200.848,182.438z"/>
	</g>
	<g style="opacity:0.7;">
		
			<linearGradient id="SVGID_00000083080419157596524630000013918809646182759590_" gradientUnits="userSpaceOnUse" x1="-14.2217" y1="200.1195" x2="26.9905" y2="200.1195" gradientTransform="matrix(-0.9758 0.2187 0.2187 0.9758 136.859 -56.4709)">
			<stop  offset="0" style="stop-color:#42E8E0"/>
			<stop  offset="0.1507" style="stop-color:#43E3E0"/>
			<stop  offset="0.3285" style="stop-color:#45D5DF"/>
			<stop  offset="0.5199" style="stop-color:#49BDDD"/>
			<stop  offset="0.7209" style="stop-color:#4E9CDB"/>
			<stop  offset="0.9274" style="stop-color:#5472D8"/>
			<stop  offset="1" style="stop-color:#5761D7"/>
		</linearGradient>
		<path style="fill:url(#SVGID_00000083080419157596524630000013918809646182759590_);" d="M196.656,145.305
			c0,0-9.757,10.345-26.932,4.668c-13.158-4.35-16.702-11.843-17.639-15.109c-0.274-0.955,0.152-1.964,1.028-2.433
			c2.968-1.586,10.811-4.633,23.61-1.684C193.43,134.596,196.656,145.305,196.656,145.305z"/>
	</g>
	<g style="opacity:0.7;">
		
			<linearGradient id="SVGID_00000140001477449884004440000012179497911805685400_" gradientUnits="userSpaceOnUse" x1="424.1216" y1="171.8189" x2="462.6554" y2="171.8189" gradientTransform="matrix(-0.9959 -0.0902 -0.0902 0.9959 634.632 -30.6625)">
			<stop  offset="0" style="stop-color:#42E8E0"/>
			<stop  offset="0.1507" style="stop-color:#43E3E0"/>
			<stop  offset="0.3285" style="stop-color:#45D5DF"/>
			<stop  offset="0.5199" style="stop-color:#49BDDD"/>
			<stop  offset="0.7209" style="stop-color:#4E9CDB"/>
			<stop  offset="0.9274" style="stop-color:#5472D8"/>
			<stop  offset="1" style="stop-color:#5761D7"/>
		</linearGradient>
		<path style="fill:url(#SVGID_00000140001477449884004440000012179497911805685400_);" d="M195.921,111.367
			c0,0-11.644,6.419-25.309-3.546c-10.469-7.634-11.481-15.318-11.382-18.494c0.029-0.928,0.697-1.705,1.611-1.872
			c3.096-0.563,10.948-1.033,21.499,5.252C196.111,100.91,195.921,111.367,195.921,111.367z"/>
	</g>
	<g style="opacity:0.7;">
		
			<linearGradient id="SVGID_00000062912399857613321880000000799433626336445356_" gradientUnits="userSpaceOnUse" x1="1533.5887" y1="1354.4753" x2="1566.6417" y2="1354.4753" gradientTransform="matrix(-0.2224 -0.975 -0.975 0.2224 1885.0087 1274.6982)">
			<stop  offset="0" style="stop-color:#42E8E0"/>
			<stop  offset="0.1507" style="stop-color:#43E3E0"/>
			<stop  offset="0.3285" style="stop-color:#45D5DF"/>
			<stop  offset="0.5199" style="stop-color:#49BDDD"/>
			<stop  offset="0.7209" style="stop-color:#4E9CDB"/>
			<stop  offset="0.9274" style="stop-color:#5472D8"/>
			<stop  offset="1" style="stop-color:#5761D7"/>
		</linearGradient>
		<path style="fill:url(#SVGID_00000062912399857613321880000000799433626336445356_);" d="M215.625,82.441
			c0,0-8.327-7.794-3.826-21.586c3.448-10.567,9.447-13.431,12.064-14.194c0.765-0.223,1.576,0.116,1.954,0.817
			c1.281,2.375,3.749,8.656,1.423,18.931C224.205,79.82,215.625,82.441,215.625,82.441z"/>
	</g>
	
		<linearGradient id="SVGID_00000127025258740932541520000007294755456522193341_" gradientUnits="userSpaceOnUse" x1="697.8309" y1="147.0008" x2="856.6416" y2="147.0008" gradientTransform="matrix(-0.9599 -0.2802 -0.2802 0.9599 1016.5353 249.8787)">
		<stop  offset="0" style="stop-color:#42E8E0"/>
		<stop  offset="0.1507" style="stop-color:#43E3E0"/>
		<stop  offset="0.3285" style="stop-color:#45D5DF"/>
		<stop  offset="0.5199" style="stop-color:#49BDDD"/>
		<stop  offset="0.7209" style="stop-color:#4E9CDB"/>
		<stop  offset="0.9274" style="stop-color:#5472D8"/>
		<stop  offset="1" style="stop-color:#5761D7"/>
	</linearGradient>
	<path style="opacity:0.7;fill:url(#SVGID_00000127025258740932541520000007294755456522193341_);" d="M180.596,276.133
		c-0.001-0.201,0.159-0.365,0.362-0.365c32.492-0.168,59.344-6.84,63.578-7.947c-1.414-3.144-2.887-6.537-4.391-10.164
		c-2.257-5.352-4.511-11.228-6.814-17.469c-0.554-1.568-1.115-3.158-1.683-4.768c-0.284-0.805-0.569-1.614-0.856-2.429
		c-0.271-0.82-0.543-1.645-0.817-2.474c-0.548-1.658-1.101-3.334-1.66-5.026c-0.323-1.047-0.651-2.111-0.977-3.17
		c-3.957,0.883-26.49,5.569-58.776,5.47c-0.201,0-0.364-0.164-0.363-0.364c0.001-0.202,0.166-0.365,0.364-0.363
		c32.06,0.098,54.472-4.53,58.56-5.44c-0.133-0.432-0.264-0.855-0.397-1.289c-1.099-3.458-2.057-7.022-3.078-10.613
		c-0.527-1.791-0.955-3.621-1.433-5.447c-0.462-1.83-0.951-3.663-1.398-5.514c-1.198-5.148-2.356-10.369-3.379-15.631
		c-4.273,0.005-31.217-0.114-56.794-3.669c-0.199-0.028-0.338-0.211-0.31-0.41c0.027-0.199,0.212-0.338,0.41-0.31
		c25.248,3.509,51.843,3.664,56.549,3.662c-0.399-2.081-0.779-4.167-1.125-6.26c-1.643-9.536-2.859-19.145-3.611-28.554
		c-4.418-0.339-26.607-2.316-48.208-9.159c-0.192-0.061-0.297-0.265-0.237-0.456c0.061-0.192,0.265-0.298,0.456-0.237
		c21.373,6.769,43.322,8.759,47.937,9.118c-0.417-5.386-0.687-10.706-0.791-15.903c-0.068-3.096-0.075-6.145-0.033-9.143
		c-4.816-3.089-30.156-19.275-42.311-25.707c-0.178-0.093-0.245-0.314-0.151-0.491c0.092-0.178,0.313-0.247,0.491-0.151
		c11.89,6.291,36.344,21.88,41.984,25.493c0.187-10.721,1.033-20.73,2.257-29.526c0.192-1.436,0.381-2.843,0.565-4.218
		c0.188-1.374,0.476-2.7,0.7-4.002c0.475-2.598,0.925-5.063,1.349-7.379c0.535-2.293,1.035-4.439,1.498-6.423
		c0.483-1.979,0.855-3.814,1.318-5.44c1.885-6.491,2.961-10.2,2.961-10.2l0.239,0.075c0,0-1.024,3.718-2.817,10.224
		c-0.439,1.628-0.786,3.466-1.241,5.447c-0.435,1.986-0.904,4.133-1.406,6.427c-0.391,2.316-0.806,4.78-1.244,7.378
		c-0.205,1.301-0.474,2.626-0.643,3.998c-0.165,1.373-0.333,2.778-0.505,4.212c-0.991,7.912-1.664,16.794-1.816,26.282
		c4.351-3.633,26.512-22.195,38.698-33.512c0.148-0.135,0.377-0.128,0.514,0.019c0.137,0.147,0.128,0.378-0.019,0.514
		c-12.749,11.84-36.394,31.592-39.204,33.935c-0.012,0.977-0.018,1.96-0.019,2.949c0.165,0.11,0.212,0.331,0.105,0.499
		c-0.027,0.041-0.068,0.064-0.106,0.09c0.004,2.828,0.054,5.7,0.158,8.613c0.142,4.201,0.402,8.484,0.752,12.811
		c4.014-1.259,24.615-8.246,45.255-24.824c0.159-0.13,0.385-0.102,0.511,0.055c0.126,0.157,0.101,0.386-0.055,0.511
		c-12.135,9.747-24.262,16.196-33.048,20.125c-6.412,2.867-11.043,4.392-12.6,4.875c0.859,10.299,2.28,20.861,4.232,31.33
		c0.199,1.111,0.423,2.217,0.638,3.324c5.693-2.425,28.716-12.501,50.056-25.649c0.166-0.106,0.395-0.052,0.501,0.119
		c0.105,0.171,0.052,0.395-0.119,0.501c-17.066,10.514-35.204,19.067-44.734,23.328c-2.514,1.124-4.425,1.948-5.563,2.432
		c1.222,6.193,2.66,12.328,4.15,18.361c0.47,1.834,0.98,3.649,1.464,5.461c0.501,1.808,0.95,3.62,1.498,5.393
		c1.004,3.357,1.955,6.685,3.017,9.926c6.624-3.692,29.184-16.661,49.855-33.17c0.157-0.128,0.386-0.099,0.511,0.058
		c0.125,0.156,0.099,0.386-0.058,0.511c-20.844,16.646-43.602,29.701-50.081,33.307c0.54,1.67,1.076,3.328,1.607,4.969
		c0.578,1.673,1.151,3.33,1.718,4.97c0.283,0.82,0.565,1.635,0.845,2.445c0.296,0.805,0.591,1.605,0.884,2.4
		c0.586,1.59,1.165,3.161,1.736,4.711c2.372,6.166,4.689,11.967,7.001,17.246c1.413,3.281,2.799,6.37,4.133,9.249
		c4.293-2.641,26.274-16.74,49.414-42.06c0.136-0.145,0.366-0.159,0.514-0.023c0.148,0.135,0.158,0.366,0.023,0.514
		c-23.305,25.5-45.466,39.668-49.642,42.233c2.849,6.117,5.446,11.258,7.526,15.213c1.563,2.969,2.838,5.274,3.723,6.828
		c0.883,1.564,1.365,2.354,1.365,2.354l-3.123,1.862c0,0-0.51-0.864-1.383-2.461c-0.882-1.599-2.143-3.954-3.683-6.979
		c-1.963-3.86-4.385-8.816-7.036-14.682c-3.855,1.014-30.984,7.832-63.877,8.002C180.76,276.496,180.596,276.334,180.596,276.133z"
		/>
</g>
<g>
	
		<linearGradient id="SVGID_00000145754950746863509170000011139325838530787505_" gradientUnits="userSpaceOnUse" x1="139.8839" y1="233.3545" x2="199.9415" y2="233.3545" gradientTransform="matrix(0.9924 0.1233 -0.1233 0.9924 212.7758 -28.258)">
		<stop  offset="0" style="stop-color:#42E8E0"/>
		<stop  offset="0.1507" style="stop-color:#43E3E0"/>
		<stop  offset="0.3285" style="stop-color:#45D5DF"/>
		<stop  offset="0.5199" style="stop-color:#49BDDD"/>
		<stop  offset="0.7209" style="stop-color:#4E9CDB"/>
		<stop  offset="0.9274" style="stop-color:#5472D8"/>
		<stop  offset="1" style="stop-color:#5761D7"/>
	</linearGradient>
	<path style="opacity:0.7;fill:url(#SVGID_00000145754950746863509170000011139325838530787505_);" d="M387.433,186.927
		c0.001-0.024,0.001-0.048,0.002-0.072c1.56-53.423-14.351-69.352-28.884-56.895c-6.436,5.517-8.805,14.368-6.657,22.567
		c0.704,2.685,1.117,5.491,0.732,8.594c-0.491,3.955-2.515,6.517-5.109,8.166c-5.534,3.517-9.302,9.233-10.079,15.744
		c-0.422,3.538-0.76,7.218-1.005,11.036c-4.089,63.639-20.474,102.069-25.063,117.34c-1.414,4.706,3.968,8.494,7.918,5.57
		c10.724-7.941,39.351-31.997,55.916-72.998c2.326-5.757,1.988-12.198-0.607-17.839c-1.001-2.176-1.492-4.94-1.188-8.451
		c0.696-8.042,5.03-14.422,9.613-20.443C385.726,195.692,387.301,191.393,387.433,186.927z"/>
	
		<linearGradient id="SVGID_00000051344419378363007880000015807316464640477321_" gradientUnits="userSpaceOnUse" x1="142.1118" y1="233.2331" x2="199.2925" y2="233.2331" gradientTransform="matrix(0.9924 0.1233 -0.1233 0.9924 212.7758 -28.258)">
		<stop  offset="0" style="stop-color:#42E8E0"/>
		<stop  offset="0.1507" style="stop-color:#43E3E0"/>
		<stop  offset="0.3285" style="stop-color:#45D5DF"/>
		<stop  offset="0.5199" style="stop-color:#49BDDD"/>
		<stop  offset="0.7209" style="stop-color:#4E9CDB"/>
		<stop  offset="0.9274" style="stop-color:#5472D8"/>
		<stop  offset="1" style="stop-color:#5761D7"/>
	</linearGradient>
	<path style="opacity:0.7;fill:url(#SVGID_00000051344419378363007880000015807316464640477321_);" d="M362.222,191.733
		l25.308-10.108c0.001-0.146,0.004-0.295,0.005-0.44l-25.257,10.088c1.761-14.83,2.91-30.574,3.44-47.142l16.216-4.461
		c-0.05-0.129-0.102-0.253-0.153-0.38l-16.05,4.415c0.181-5.766,0.284-11.636,0.315-17.598c-0.136,0.023-0.273,0.054-0.41,0.082
		c-0.096,16.951-0.798,32.462-1.962,46.619l-11.599-9.247c-0.046,0.137-0.095,0.273-0.145,0.406l11.702,9.329
		c-1.556,18.703-3.913,35.048-6.726,49.267l-20.967-19.705c-0.014,0.173-0.028,0.346-0.042,0.519l20.915,19.656
		c-4.781,24.003-10.852,41.923-16.527,54.891c-0.338,0.773-0.677,1.529-1.015,2.275l-12.335-18.745
		c-0.043,0.183-0.086,0.363-0.128,0.546l12.265,18.638c-11.416,24.998-23.004,35.497-26.195,38.064
		c0.104,0.091,0.212,0.179,0.323,0.262c2.323-1.881,8.645-7.598,16.116-19.333l11.259,0.195c0.037-0.04,0.074-0.078,0.111-0.118
		c0.073-0.078,0.147-0.156,0.22-0.235c0.015-0.016,0.03-0.032,0.044-0.048l-11.38-0.197c3.541-5.607,7.33-12.559,11.066-21.09
		c3.953-9.026,7.467-18.935,10.529-29.643l24.405-3.448c0.058-0.145,0.116-0.29,0.173-0.436l-24.453,3.455
		c3.14-11.048,5.798-22.945,7.949-35.618C360.376,205.762,361.369,198.852,362.222,191.733z"/>
</g>
<path style="opacity:0.4;fill:#0B0244;" d="M471.409,285.019c5.146-9.981,6.733-17.404,5.788-22.443
	c-0.009-0.043-0.018-0.086-0.026-0.13l-0.004,0c-1.106-5.589-5.359-8.196-11.302-8.08c0.002-0.003,0.003-0.007,0.005-0.01
	c-0.134,0.003-0.271,0.009-0.408,0.014c0,0.001-0.001,0.002-0.001,0.003c-2.339,0.093-4.924,0.59-7.677,1.49
	c-7.532,2.462-12.124,6.976-12.288,11.466c-0.054,1.47-0.413,2.984-1.603,4.598c-0.364,0.493-0.792,0.935-1.268,1.335
	c-0.038,0.032-0.077,0.065-0.116,0.096c-1.497,1.216-3.47,2.016-5.606,2.526c-6.149,1.468-11.223,4.225-13.69,7.614
	c-1.341,1.842-2.641,3.764-3.891,5.767c-20.825,33.376-46.505,52.544-54.9,60.297c-1.174,1.085-0.971,2.165,0.014,2.907
	c-0.002,0.001-0.005,0.002-0.007,0.002c0.074,0.056,0.152,0.109,0.235,0.161c0.001,0,0.003-0.001,0.005-0.001
	c1.24,0.776,3.421,1.088,5.724,0.44c5.233-1.474,14.354-4.283,25.15-8.621l0.004,0c0.046-0.018,0.091-0.036,0.136-0.055
	c0.09-0.036,0.18-0.072,0.27-0.109c0.018-0.007,0.036-0.015,0.054-0.022l-0.002,0c14.316-5.785,31.506-14.243,46.511-25.844
	c0.199-0.154,0.388-0.31,0.573-0.467h0.023c0.093-0.073,0.186-0.145,0.279-0.218l-0.051,0c3.101-2.73,4.229-5.874,3.363-8.795
	c-0.362-1.222-0.087-2.719,1.135-4.555c2.8-4.205,8.583-7.273,14.505-10.133c3.496-1.689,6.126-3.851,7.441-6.204
	c0.007-0.013,0.014-0.025,0.021-0.038c0.529-0.947,1.022-1.869,1.492-2.775c0.038-0.073,0.077-0.146,0.115-0.218L471.409,285.019z"
	/>
<g>
	
		<linearGradient id="SVGID_00000001650681220029592150000014213862234422420667_" gradientUnits="userSpaceOnUse" x1="-60.3335" y1="313.4108" x2="17.4273" y2="313.4108" gradientTransform="matrix(0.9686 0.2485 -0.2485 0.9686 511.7584 -61.8312)">
		<stop  offset="0" style="stop-color:#42E8E0"/>
		<stop  offset="0.1507" style="stop-color:#43E3E0"/>
		<stop  offset="0.3285" style="stop-color:#45D5DF"/>
		<stop  offset="0.5199" style="stop-color:#49BDDD"/>
		<stop  offset="0.7209" style="stop-color:#4E9CDB"/>
		<stop  offset="0.9274" style="stop-color:#5472D8"/>
		<stop  offset="1" style="stop-color:#5761D7"/>
	</linearGradient>
	<path style="opacity:0.7;fill:url(#SVGID_00000001650681220029592150000014213862234422420667_);" d="M463.947,194.174
		c0.005-0.031,0.01-0.061,0.015-0.092c10.798-68.353-7.014-91.431-27.729-77.825c-9.174,6.026-13.674,17.003-12.264,27.887
		c0.462,3.564,0.531,7.236-0.475,11.157c-1.282,4.998-4.303,7.956-7.906,9.646c-7.686,3.605-13.467,10.327-15.536,18.56
		c-1.124,4.474-2.164,9.144-3.108,14.008c-15.728,81.057-43.098,127.716-51.506,146.573c-2.591,5.811,3.698,11.562,9.252,8.457
		c15.081-8.432,55.805-34.615,83.83-84.546c3.935-7.011,4.562-15.339,2.158-23.01c-0.928-2.96-1.103-6.59-0.135-11.049
		c2.218-10.214,8.834-17.694,15.711-24.672C460.312,205.149,463.043,199.887,463.947,194.174z"/>
	
		<linearGradient id="SVGID_00000049939199650190252610000014721366363793645975_" gradientUnits="userSpaceOnUse" x1="-57.4485" y1="313.2538" x2="16.5866" y2="313.2538" gradientTransform="matrix(0.9686 0.2485 -0.2485 0.9686 511.7584 -61.8312)">
		<stop  offset="0" style="stop-color:#42E8E0"/>
		<stop  offset="0.1507" style="stop-color:#43E3E0"/>
		<stop  offset="0.3285" style="stop-color:#45D5DF"/>
		<stop  offset="0.5199" style="stop-color:#49BDDD"/>
		<stop  offset="0.7209" style="stop-color:#4E9CDB"/>
		<stop  offset="0.9274" style="stop-color:#5472D8"/>
		<stop  offset="1" style="stop-color:#5761D7"/>
	</linearGradient>
	<path style="opacity:0.7;fill:url(#SVGID_00000049939199650190252610000014721366363793645975_);" d="M430.778,196.196
		l34.167-8.816c0.026-0.187,0.054-0.378,0.079-0.565l-34.098,8.798c4.704-18.757,8.77-38.787,12.179-59.977l21.561-3.06
		c-0.043-0.174-0.09-0.342-0.134-0.514l-21.34,3.028c1.182-7.376,2.28-14.898,3.302-22.549c-0.179,0.007-0.359,0.024-0.54,0.038
		c-2.914,21.755-6.369,41.56-10.195,59.55l-13.374-13.785c-0.082,0.169-0.166,0.335-0.253,0.497l13.493,13.908
		c-5.077,23.764-10.796,44.368-16.749,62.166l-23.684-28.759c-0.046,0.221-0.093,0.44-0.14,0.66l23.625,28.688
		c-10.091,30.039-20.839,52.055-30.263,67.775c-0.561,0.937-1.121,1.852-1.679,2.755l-12.756-26.105
		c-0.085,0.228-0.17,0.453-0.255,0.68l12.683,25.956c-18.777,30.225-35.388,41.802-39.908,44.572
		c0.119,0.135,0.243,0.264,0.372,0.389c3.293-2.034,12.353-8.335,23.881-22.176l14.428,2.104c0.054-0.045,0.108-0.089,0.163-0.133
		c0.107-0.088,0.214-0.177,0.322-0.266c0.021-0.018,0.043-0.036,0.065-0.054l-14.583-2.126c5.471-6.618,11.481-14.923,17.684-25.265
		c6.563-10.942,12.708-23.089,18.403-36.336l31.91-0.411c0.098-0.177,0.197-0.353,0.294-0.531l-31.974,0.412
		c5.852-13.671,11.224-28.513,16.073-44.435C426.098,213.908,428.511,205.198,430.778,196.196z"/>
</g>
<g>
	<g>
		<path style="fill:#42E8E0;" d="M276.556,403.633c-1.786,0-3.493-0.36-4.766-1.096l0,0l-136.495-78.806
			c-1.291-0.745-2.001-1.792-2.002-2.947c0-1.371,1.007-2.738,2.762-3.752l134.971-77.925c3.222-1.858,8.124-2.056,10.927-0.439
			l136.495,78.806c1.291,0.744,2.001,1.791,2.002,2.947c0,1.37-1.007,2.738-2.762,3.751l-134.969,77.925
			C280.96,403.113,278.701,403.633,276.556,403.633z M272.127,401.953c2.618,1.51,7.216,1.313,10.254-0.44l134.97-77.925
			c1.54-0.89,2.424-2.044,2.424-3.167c0-0.905-0.591-1.744-1.664-2.363l-136.495-78.806c-2.618-1.511-7.217-1.315-10.253,0.438
			l-134.97,77.925c-1.541,0.891-2.425,2.045-2.425,3.168c0,0.904,0.591,1.743,1.664,2.363L272.127,401.953L272.127,401.953z"/>
		
			<linearGradient id="SVGID_00000125591442969232277900000010719216711234377374_" gradientUnits="userSpaceOnUse" x1="577.5276" y1="533.8157" x2="257.1606" y2="298.3493">
			<stop  offset="0" style="stop-color:#5761D7"/>
			<stop  offset="0.1779" style="stop-color:#5C66D9"/>
			<stop  offset="0.3876" style="stop-color:#6A73DF"/>
			<stop  offset="0.6134" style="stop-color:#8289E8"/>
			<stop  offset="0.849" style="stop-color:#A3A7F5"/>
			<stop  offset="1" style="stop-color:#BCBEFF"/>
		</linearGradient>
		<path style="fill:url(#SVGID_00000125591442969232277900000010719216711234377374_);" d="M420.112,308.803l-8.234,0.004
			l-130.094-75.11c-2.715-1.567-7.456-1.371-10.591,0.439L141.63,308.94l-7.998,0.004v6.568h0.005
			c-0.003,0.998,0.593,1.952,1.826,2.664l136.495,78.806c2.715,1.567,7.456,1.371,10.591-0.439l134.97-77.925
			c1.758-1.015,2.636-2.322,2.591-3.55h0.003V308.803z"/>
		
			<linearGradient id="SVGID_00000116215926623888207140000012574463954756685501_" gradientUnits="userSpaceOnUse" x1="-83.4249" y1="308.8034" x2="385.8549" y2="308.8034">
			<stop  offset="0" style="stop-color:#C0BFF6"/>
			<stop  offset="0.2938" style="stop-color:#C5C4F7"/>
			<stop  offset="0.6399" style="stop-color:#D3D2F9"/>
			<stop  offset="1" style="stop-color:#E9E9FD"/>
		</linearGradient>
		<path style="fill:url(#SVGID_00000116215926623888207140000012574463954756685501_);" d="M271.958,390.445L135.463,311.64
			c-2.715-1.567-2.374-4.305,0.76-6.115l134.97-77.925c3.135-1.81,7.876-2.006,10.591-0.439l136.495,78.805
			c2.715,1.567,2.374,4.305-0.76,6.115l-134.97,77.925C279.415,391.816,274.673,392.013,271.958,390.445z"/>
		<path style="opacity:0.1;fill:#180D5B;" d="M272.298,384.806l-127.067-73.362c-2.527-1.459-2.21-4.008,0.708-5.692l125.647-72.542
			c2.918-1.685,7.332-1.868,9.859-0.409l127.067,73.362c2.527,1.459,2.21,4.007-0.708,5.692l-125.647,72.543
			C279.239,386.082,274.825,386.265,272.298,384.806z"/>
		<path style="fill:#FFFFFF;" d="M417.519,311.326l-134.97,77.925c-3.135,1.81-7.876,2.006-10.591,0.439l-136.495-78.805
			c-1.078-0.622-1.666-1.43-1.797-2.29c-0.176,1.134,0.408,2.243,1.797,3.045l136.495,78.805c2.715,1.567,7.456,1.371,10.591-0.439
			l134.97-77.925c1.89-1.091,2.757-2.519,2.558-3.825C419.909,309.338,419.05,310.443,417.519,311.326z"/>
	</g>
	<path style="opacity:0.1;fill:#180D5B;" d="M278.262,312.517H407.99l2.686-10.94l-128.891-74.416
		c-2.715-1.567-7.456-1.371-10.591,0.439l-73.863,42.645l64.723,37.878C266.971,311,272.565,312.517,278.262,312.517z"/>
	<g>
		<g>
			<g>
				<g>
					<g>
						
							<linearGradient id="SVGID_00000006693697965481760940000003586901341992320926_" gradientUnits="userSpaceOnUse" x1="-2490.4739" y1="3631.4194" x2="-2184.6985" y2="3492.8281" gradientTransform="matrix(1 7.000000e-04 -7.000000e-04 1 2573.7136 -3298.1904)">
							<stop  offset="0" style="stop-color:#C0BFF6"/>
							<stop  offset="0.2938" style="stop-color:#C5C4F7"/>
							<stop  offset="0.6399" style="stop-color:#D3D2F9"/>
							<stop  offset="1" style="stop-color:#E9E9FD"/>
						</linearGradient>
						<path style="fill:url(#SVGID_00000006693697965481760940000003586901341992320926_);" d="M272.253,116.082l3.099-1.783
							l0.001,0.018c0.416-0.216,0.942-0.198,1.523,0.138l133.012,76.922c1.33,0.769,2.407,2.83,2.406,4.604l-0.146,112.731
							c-0.001,0.978-0.336,1.649-0.853,1.94l0.015,0.008l-3.092,1.78l-0.219-11.19l-124.095-71.766
							c-1.33-0.769-2.407-2.83-2.406-4.604l0.14-103.51c-0.207,0.652-0.365,1.128-0.388,1.143
							C281.174,122.564,272.253,116.082,272.253,116.082z"/>
						
							<linearGradient id="SVGID_00000046318517765764736860000000655540292450253204_" gradientUnits="userSpaceOnUse" x1="2930.5811" y1="3503.0156" x2="2930.5811" y2="3491.8325" gradientTransform="matrix(-1 -7.000000e-04 -7.000000e-04 1 3333.4607 -3298.1047)">
							<stop  offset="0" style="stop-color:#C0BFF6"/>
							<stop  offset="0.2938" style="stop-color:#C5C4F7"/>
							<stop  offset="0.6399" style="stop-color:#D3D2F9"/>
							<stop  offset="1" style="stop-color:#E9E9FD"/>
						</linearGradient>
						<path style="fill:url(#SVGID_00000046318517765764736860000000655540292450253204_);" d="M412.231,195.24l-19.565,7.614
							l-4.036-2.334l21.687-8.837C411.268,192.462,412.022,193.868,412.231,195.24z"/>
						
							<linearGradient id="SVGID_00000158709491782387774960000006259496728023310475_" gradientUnits="userSpaceOnUse" x1="3468.8303" y1="4803.23" x2="3468.8303" y2="4699.999" gradientTransform="matrix(-0.8657 -0.5006 -8.000000e-04 1.1547 3347.0417 -3535.9534)">
							<stop  offset="0" style="stop-color:#C0BFF6"/>
							<stop  offset="0.2938" style="stop-color:#C5C4F7"/>
							<stop  offset="0.6399" style="stop-color:#D3D2F9"/>
							<stop  offset="1" style="stop-color:#E9E9FD"/>
						</linearGradient>
						<path style="fill:url(#SVGID_00000158709491782387774960000006259496728023310475_);" d="M273.693,235.356l133.012,76.922
							c1.33,0.769,2.409-0.046,2.41-1.819l0.146-112.731c0.001-1.774-1.076-3.835-2.406-4.604l-133.012-76.922
							c-1.33-0.769-2.409,0.046-2.41,1.819l-0.146,112.731C271.286,232.525,272.363,234.587,273.693,235.356z"/>
						<path style="fill:#FFFFFF;" d="M406.855,193.123l-133.012-76.922c-0.791-0.458-1.487-0.344-1.927,0.188
							c0.373-0.1,0.812-0.035,1.286,0.239l133.012,76.922c1.33,0.769,2.407,2.831,2.406,4.604l-0.146,112.731
							c-0.001,0.719-0.184,1.27-0.484,1.632c0.673-0.18,1.124-0.917,1.125-2.058l0.146-112.731
							C409.262,195.954,408.185,193.892,406.855,193.123z"/>
						<polygon style="fill:#24126A;" points="273.298,232.916 407.05,310.266 407.218,197.269 273.466,119.919 						"/>
					</g>
				</g>
			</g>
		</g>
		
			<linearGradient id="SVGID_00000114753796186906283760000011914001891422626991_" gradientUnits="userSpaceOnUse" x1="292.8029" y1="187.9039" x2="391.2239" y2="244.7273">
			<stop  offset="0" style="stop-color:#080545"/>
			<stop  offset="0.0749" style="stop-color:#163D6B"/>
			<stop  offset="0.1539" style="stop-color:#23718E"/>
			<stop  offset="0.2318" style="stop-color:#2E9BAC"/>
			<stop  offset="0.3068" style="stop-color:#37BDC2"/>
			<stop  offset="0.3781" style="stop-color:#3DD5D3"/>
			<stop  offset="0.4442" style="stop-color:#41E3DD"/>
			<stop  offset="0.5" style="stop-color:#42E8E0"/>
			<stop  offset="0.5526" style="stop-color:#41E3DC"/>
			<stop  offset="0.6187" style="stop-color:#3DD3D2"/>
			<stop  offset="0.6919" style="stop-color:#36B9C0"/>
			<stop  offset="0.7704" style="stop-color:#2D96A8"/>
			<stop  offset="0.853" style="stop-color:#226889"/>
			<stop  offset="0.9377" style="stop-color:#143063"/>
			<stop  offset="1" style="stop-color:#080344"/>
		</linearGradient>
		<path style="fill:url(#SVGID_00000114753796186906283760000011914001891422626991_);" d="M334.362,232.524
			c-0.723,0-1.517-0.237-2.333-0.709l-11.889-6.864c-2.765-1.597-5.014-5.492-5.014-8.685v-3.443c0-2.978-2.098-6.611-4.677-8.101
			l-11.557-6.672c-1.186-0.686-2.282-0.806-3.089-0.34c-0.807,0.466-1.251,1.476-1.251,2.845v21.95c0,1.62-0.564,2.838-1.588,3.429
			c-1.023,0.591-2.36,0.472-3.763-0.339l-13.619-7.863l0.337-0.584l13.619,7.863c1.185,0.684,2.282,0.806,3.089,0.339
			c0.807-0.466,1.251-1.475,1.251-2.845v-21.95c0-1.62,0.564-2.838,1.588-3.429c1.023-0.592,2.36-0.471,3.763,0.34l11.557,6.672
			c2.765,1.597,5.014,5.492,5.014,8.685v3.443c0,2.978,2.098,6.611,4.677,8.101l11.889,6.864c1.186,0.684,2.283,0.804,3.089,0.34
			c0.807-0.466,1.251-1.477,1.251-2.846v-24.963c0-1.62,0.564-2.838,1.588-3.429c1.023-0.592,2.36-0.471,3.763,0.34l13.223,7.634
			c1.186,0.685,2.282,0.804,3.089,0.34c0.807-0.466,1.251-1.477,1.251-2.846V192.89c0-1.62,0.564-2.838,1.587-3.43
			c1.024-0.591,2.361-0.471,3.764,0.34l13.76,7.944c2.765,1.597,5.014,5.492,5.014,8.685c0,2.978,2.098,6.611,4.677,8.101
			l15.177,8.763l-0.337,0.584l-15.177-8.763c-2.765-1.597-5.014-5.492-5.014-8.685c0-2.978-2.099-6.611-4.677-8.101l-13.76-7.944
			c-1.186-0.684-2.282-0.804-3.089-0.34c-0.807,0.466-1.251,1.477-1.251,2.846v12.911c0,1.62-0.563,2.838-1.587,3.43
			c-1.024,0.591-2.361,0.471-3.764-0.34l-13.223-7.634c-1.186-0.686-2.283-0.806-3.089-0.34c-0.807,0.466-1.251,1.476-1.251,2.845
			v24.963c0,1.62-0.564,2.838-1.587,3.43C335.365,232.402,334.882,232.524,334.362,232.524z"/>
	</g>
	<g>
		<path style="fill:#FCD1C5;" d="M295.515,296.288c0,0-0.715,2.147-0.65,2.662c0.065,0.516,1.541,2.547,1.643,2.609
			c0.102,0.062,1.353,1.657,2.755,2.422c1.404,0.766,1.511,1.146,1.642,1.163c0.13,0.017,0.339-0.118,0.339-0.118
			s0.208-1.468-0.409-2.18c-0.616-0.711,0.305-1.768,0.305-1.768l-1.591-4.149L295.515,296.288z"/>
		<path style="fill:#160A5B;" d="M310.766,342.19c0,0-2.49,0.58-4.893,0.662c-2.405,0.082-8.961,1.322-8.835,3.671
			c0.127,2.359,3.485,5.745,7.743,6.255c4.258,0.51,9.759-0.656,12.539-0.576c2.778,0.08,4.737-2.646,3.706-5.268
			C320,344.324,310.766,342.19,310.766,342.19z"/>
		<path style="fill:#160A5B;" d="M325.285,335.928c0,0,0.88,1.427,0.413,2.296c-0.467,0.87-1.71,3.033-5.561,0.919
			c-3.84-2.108-11.3-5.139-11.3-5.139s-4.278-2.242-3.997-4.867c0.28-2.611,4.254-2.2,4.254-2.2L325.285,335.928z"/>
		<path style="fill:#FCD1C5;" d="M282.414,241.629c0,0-2.54,0.033-3.66-0.473c-1.119-0.506-4.372-1.573-4.574-1.68
			c-0.202-0.107-1.994-0.225-2.815-0.752c0,0-0.916,0.448-0.193,1.189c0.725,0.742,2.094,0.984,2.094,0.984l1.289,0.751
			c0,0-2.61,1.339-2.845,1.439c-0.236,0.1-2.421,1.763-2.642,1.865c-0.221,0.102-1.195,0.862-0.818,1.535
			c0,0,0.038,0.153,0.525,0.257c0,0-1.396,0.634-1.052,1.321c0.345,0.688,1.23,0.39,1.23,0.39s0.336,1.233,2.022,0.278
			c0,0,0.197,1.529,3.936-0.069c0,0,1.511-0.398,2.617-0.321c1.106,0.077,4.116-0.701,5.73-1.837
			C284.866,245.374,282.414,241.629,282.414,241.629z"/>
		<path style="fill:#E2B1A6;" d="M277.527,248.344c1.106,0.077,4.116-0.701,5.73-1.837c1.084-0.763,0.324-2.71-0.286-3.9
			c-0.762-0.37-1.433-0.673-1.433-0.673s0.113,3.706,0.03,4.262c-0.084,0.557-3.431,1.218-5.577,1.533
			c-2.148,0.315-4.965,1.147-4.967,1.147c0.166,0.338,0.884,1.072,3.887-0.211C274.911,248.665,276.422,248.267,277.527,248.344z"/>
		<path style="fill:#4846A5;" d="M311.844,234.43c0,0-5.288,0.926-7.088,1.5c-1.746,0.557-16.902,3.556-22.452,4.914
			c-0.35,0.086-0.622,0.37-0.705,0.732c-0.067,0.29-0.11,0.636-0.039,0.923c0.156,0.627,0.688,6.903,3.767,5.877
			c0.924-0.308,3.641-0.875,5.813-1.162c2.169-0.286,11.434-0.998,11.434-0.998l15.671-8.969L311.844,234.43z"/>
		<path style="fill:#24126A;" d="M300.497,298.278c0,0,1.4,17.296,4.846,23.825c3.486,6.605,4.255,18.606,4.96,20.89
			c0.708,2.293,2.961,5.587,6.594,6.294c3.635,0.708,4.282-1.681,4.133-3.12c-0.148-1.435-1.111-3.759-1.09-5.319
			c0.02-1.555,0.41-2.281,0.482-2.996c0,0,4.157,1.209,4.864-1.924c0,0-0.318-0.915-0.363-1.383
			c-0.045-0.467,0.63-11.867,0.764-13.253c0.134-1.382-0.463-8.891-1.55-12.611c-1.079-3.694-0.518-11.557-0.518-11.557
			l-12.03-1.755L300.497,298.278z"/>
		<path style="fill:#160A5B;" d="M320.022,298.349c0,0-0.108,2.702-1.307,4.962c0,0-0.169,9.162-1.228,13.778
			c0,0,1.357,9.255,2.27,12.164c0.918,2.924,0.664,8.598,0.664,8.598s0.472,0.173,1.155,0.2c0.682,0.027,0.98-11.226-0.028-13.225
			c-1.004-1.992-1.61-10.84-1.155-13.541c0.452-2.687,0.483-10.409,1.036-11.771c0.551-1.358-0.612-2.092-0.612-2.092
			L320.022,298.349z"/>
		<path style="fill:#160A5B;" d="M311.043,234.574c0,0-3.616,2.508-3.513,6.934l2.659-0.525
			C310.189,240.983,309.49,236.073,311.043,234.574z"/>
		<path style="fill:#160A5B;" d="M311.161,302.046c7.984,0.306,12.365-3.112,12.365-3.112c0.042-1.095,0.092-1.809,0.092-1.809
			l-12.03-1.755l-11.091,2.909c0,0,0.278,3.424,0.89,7.801c1.96,0.222,3.967-4.461,3.967-4.461l5.483,0.386
			C310.837,302.004,303.166,301.739,311.161,302.046z"/>
		<path style="fill:#453C9E;" d="M302.04,298.55c0,0,17.257,7.071,25.937-5.992c0.248-0.373,0.369-0.831,0.364-1.293l-0.034-3.078
			c-0.004-0.391,0.062-0.779,0.195-1.14l0,0c0.288-0.78,0.368-1.63,0.231-2.46c-0.571-3.458-2.121-12.894-2.476-15.522
			c-0.434-3.209,1.585-16.062,4.63-21.622c3.008-5.493-4.097-18.132-4.097-18.132s-1.755-2.968-5.347-2.022
			c0,0,3.352,2.431,1.436,4.902c-1.927,2.485-7.556,4.402-7.556,4.402s-10.439,5.163-14.085,11.576c0,0-1.269,3.336-1.442,7.569
			c-0.174,4.27,0.145,14.488-0.057,15.9c-0.202,1.416-0.897,11.073-0.847,11.523C298.942,283.615,302.04,298.55,302.04,298.55z"/>
		<path style="fill:#24126A;" d="M307.297,300.014c0,0,10.801-27.097,10.515-37.073c-0.28-9.78-15.433,19.481-15.433,19.481
			l-0.339,16.128C302.04,298.55,305.31,299.762,307.297,300.014z"/>
		<path style="fill:#4846A5;" d="M302.285,267.744c0.412-2.241,0.667-4.496,0.73-6.753c0.11-3.932,1.34-10.457,8.541-9.216
			c10.15,1.749,5.512,15.742,4.352,18.173c-1.167,2.443-5.805,13.426-6.049,14.048c-0.23,0.585-7.45,14.197-9.993,17.443
			c-0.233,0.297-0.633,0.339-0.91,0.104c-0.997-0.846-3.239-2.866-3.518-4.135c-0.358-1.633,1.189-7.541,1.189-7.541
			s4.178-14.832,4.522-15.523C301.405,273.825,301.618,271.371,302.285,267.744z"/>
		<path style="fill:#FCD1C5;" d="M311.213,234.898c0,0-0.78-1.854-2.658-2.075c-1.878-0.222-2.938-0.759-3.115-1.455
			c-0.177-0.696-0.173-1.535-0.612-2.576c-0.438-1.039-0.782-3.583-0.774-3.644c0.008-0.061-1.419-0.516-1.478-1.146
			c-0.06-0.629,0.72-2.862,0.642-3.037c-0.078-0.175-0.827-1.567-0.706-2.638c0.121-1.069,0.286-2.619,0.881-3.925
			c0.594-1.302,4.744-9.237,15.098-4.906c10.421,4.359,2.247,13.012,3.164,18.716c0,0,0.905,1.21-0.843,3.211
			C319.055,233.432,314.092,233.791,311.213,234.898z"/>
		<path style="fill:#E2B1A6;" d="M320.811,231.422c1.748-2,0.843-3.211,0.843-3.211c-0.127-0.791-0.075-1.642,0.075-2.53
			l-4.118,0.709c0,0-5.963-5.489-5.586-2.596c0.379,2.91-1.103,3.384-1.103,3.384l1.214,1.598c0.312,0.41,0.114,0.883-0.155,1.323
			c-1.784,2.93-5.97,1.971-5.979,1.972c0.519,0.349,1.374,0.612,2.551,0.751c1.878,0.222,2.658,2.075,2.658,2.075
			C314.092,233.791,319.055,233.432,320.811,231.422z"/>
		<g>
			<path style="fill:#AA8383;" d="M302.991,211.353c0,0-0.765,2.127,0.401,3.049c1.168,0.923,2.224,1.793,2.224,1.793l-0.051,2.706
				c-0.007,0.39,0.099,0.774,0.305,1.103l1.445,2.307c0.279,0.445,0.424,0.964,0.418,1.494l-0.012,1.103
				c-0.004,0.324,0.231,0.599,0.546,0.639l0.389,0.05c0.343,0.044,0.656-0.203,0.699-0.553l0.189-1.528c0,0,0.799-1.218,2.482,0.279
				l1.52,0.654c0.424,0.183,0.754,0.537,0.907,0.981c0.406,1.184,1.279,3.521,1.956,3.918c0.916,0.536,4.537-1.248,5.034-2.057
				c0.495-0.807,1.821-6.242,2.628-8.834c0.803-2.578,0.505-9.014-7.217-10.811C309.145,205.852,304.099,209.04,302.991,211.353z"/>
			<path style="fill:#936D6D;" d="M321.443,227.29c0.495-0.807,1.821-6.242,2.628-8.834c0,0-3.033,1.936-6.927,2.458
				c-3.902,0.523-11.542-3.997-11.542-3.997l-0.038,1.984c-0.007,0.39,0.099,0.774,0.305,1.103l1.445,2.307
				c0.279,0.445,0.424,0.964,0.418,1.494l-0.012,1.103c-0.004,0.324,0.231,0.599,0.546,0.639l0.389,0.05
				c0.343,0.044,0.656-0.203,0.699-0.553l0.189-1.528c0,0,0.799-1.218,2.482,0.279l2.199,0.946c0,0,1.268,4.071,2.184,4.607
				C317.325,229.884,320.947,228.099,321.443,227.29z"/>
		</g>
		<path style="fill:#F0F6FF;" d="M321.59,227.551c0,0,2.958,1.892,1.408,4.475c-1.559,2.598-12.512,7.076-13.061,7.755
			c0,0-0.358-3.91,1.107-5.208c0,0,8.356-1.476,9.692-3.57C322.065,228.92,321.59,227.551,321.59,227.551z"/>
		<path style="fill:#C4CCD6;" d="M321.59,227.551c0,0,0.476,1.369-0.854,3.453c-1.011,1.584-6.037,2.814-8.427,3.319l0,0
			c0,0,0.875,0.513,2.305,3.039c3.375-1.669,7.474-3.82,8.384-5.336C324.548,229.443,321.59,227.551,321.59,227.551z"/>
		<path style="fill:#24126A;" d="M315.98,254.057c2.647,8.524-4.658,21.558-5.741,25.359c-1.092,3.834-12.063,21.436-12.065,21.44
			c0.295,0.269,0.567,0.506,0.78,0.686c0.277,0.235,0.678,0.193,0.91-0.104c2.544-3.246,9.764-16.859,9.993-17.443
			c0.245-0.622,4.883-11.605,6.049-14.048C316.838,267.998,320.013,258.573,315.98,254.057z"/>
		<path style="fill:#24126A;" d="M323.435,235.927c0,0-4.89,2.676-7.27,3.882c-2.387,1.209-4.996,2.825-4.996,2.825l-0.889-0.909
			l-1.129,2.35c0,0-3.752,2.154-5.521,3.969c-1.776,1.822-3.131,4.213-3.327,4.759c0,0,4.734-5.946,8.419-7.681l0.991-0.477
			l0.59-1.865l0.88,0.955C311.182,243.735,321.927,237.543,323.435,235.927z"/>
	</g>
	<g>
		<g>
			<path style="fill:#FCD1C5;" d="M245.012,236.5c0,0,1.821,0.311,2.489-0.03c0.667-0.34,2.409-0.57,4.426,0.151
				c2.02,0.721,1.852,0.612,2.649,0.69c0.797,0.078,2.092,0.16,2.513,0.427c0.421,0.267,1.221,0.774,0.48,1.832
				c-0.743,1.06-3.517,0.063-3.968-0.02c-0.451-0.083-0.947,0.717-0.722,1.436c0.225,0.72,4.408,5.295,5.064,5.75
				c0.657,0.456,3.483,2.345,3.605,3.091c0.122,0.747-0.035,0.853-0.035,0.853s0.824,0.746,0.533,1.437
				c-0.292,0.692-1.575-0.368-1.812-0.209c0,0,0.209,0.769-0.104,0.91c-0.313,0.141-2.148-0.571-2.368-0.792
				c0,0-0.213,0.591-1.26-0.02c-1.046-0.611-5.058-2.891-5.529-3.321c-0.47-0.43-2.049-1.891-2.699-2.281
				c-0.65-0.39-1.771-1.72-2.33-2.243c-0.559-0.522-3.048-1.783-4-1.966C240.992,242.011,245.012,236.5,245.012,236.5z"/>
			<path style="fill:#E2B1A6;" d="M248.209,244.768c-0.922-1.683-4.013-2.987-4.013-2.987c0.209-1.37,2.179-5.153,2.179-5.153v0
				c-0.682-0.012-1.363-0.128-1.363-0.128s-4.02,5.511-3.069,5.695c0.951,0.183,3.441,1.444,4,1.966
				c0.559,0.523,1.68,1.853,2.33,2.243c0.65,0.39,2.229,1.852,2.699,2.281c0.47,0.43,4.482,2.711,5.529,3.321
				c1.047,0.611,1.26,0.02,1.26,0.02c0.22,0.221,2.055,0.933,2.368,0.792c0.313-0.141,0.104-0.91,0.104-0.91
				s-1.289-0.732-2.616-1.198C256.293,250.244,249.134,246.456,248.209,244.768z"/>
			<path style="fill:#FCD1C5;" d="M242.009,230.433c0,0,0.394,2.056,0.251,3.729c-0.143,1.679-3.507-0.516-3.381-0.806
				c0.126-0.29,1.596-2.818,1.596-2.818L242.009,230.433z"/>
			<path style="fill:#24126A;" d="M227.336,179.853c0,0,1.866-0.085,4.136,3.643c2.187,3.59,6.033,16.438,8.049,21.366
				c0.179,0.437,0.311,0.89,0.391,1.358c0.655,3.844,3.727,21.93,3.867,24.104c0,0-2.342,1.557-3.846,1.942l-3.306-1.096
				l-3.256-32.785l-5.275-17.311L227.336,179.853z"/>
			<path style="fill:#160A5B;" d="M216.764,287.728c0,0-0.632,3.033-0.286,3.62c0.346,0.588,4.29,5.045,4.707,5.644
				c0.418,0.6,2.45,4.247,6.186,5.137c3.742,0.892,6.287,0.66,6.793-1.097c0.505-1.752-1.69-4.662-2.707-5.602
				c-1.014-0.938-5.285-6.019-6.065-6.756c-0.78-0.736-1.909-0.851-1.909-0.851l-4.872,0.847L216.764,287.728z"/>
			<path style="fill:#160A5B;" d="M231.881,278.653c0,0,3.728,1.445,5.677,1.936c1.951,0.492,6.599,3.964,6.548,5.708
				c-0.051,1.75-2.34,2.957-4.665,2.784c-2.325-0.173-5.086-1.656-5.536-2.051c-0.45-0.394-2.044-1.266-3.947-1.859
				c-1.902-0.593-4.967-0.884-5.473-1.898c-0.505-1.013-0.579-3.106-0.579-3.106L231.881,278.653z"/>
			<path style="fill:#24126A;" d="M223.459,278.023c0.028-0.179,0.156-0.48,0.179-0.605c0.169-0.923,0.009-4.672,0.009-4.672
				l-0.821,1.123c0,0,0.578,3.754,1.7,9.624c0.285,1.489,1.064,3.025,1.179,3.869c0.342,2.513-1.15,3.004-1.15,3.004
				c-3.03,2.28-5.619,0.903-6.55,0.17c-0.93-0.732-1.245-1.91-2.536-6.141c-1.282-4.201-2.396-13.078-2.119-15.188
				c0.244-1.862,0.921-7.06,0.887-10.634c-0.033-3.551-2.765-14.903-2.765-14.903l11.296-2.193l7.711-3.994l5.885,0.887
				c0,0,0.745-2.486,1.521,5.253c0.788,7.849-3.968,21.738-3.968,21.738c-1.254,6.877-1.574,14.786-2.286,15.857
				c-0.714,1.074-3.526,3.604-6.129,1.637c-0.478-0.361-1.024-0.74-1.31-1.128L223.459,278.023z"/>
			<path style="fill:#160A5B;" d="M222.826,273.87c0,0,3.715-10.113,5.476-19.915c1.731-9.631,4.73-10.986,5.977-12.715
				c0,0,1.877,0.861,2.872,1.03c0.121,0.021,0.229,0.031,0.319,0.028c0.828-0.026-4.153,6.175-5.048,7.766
				c-0.897,1.596-6.048,15.243-6.406,17.127c-0.359,1.89-0.725,15.055-0.307,15.809c0.418,0.756-1.426-0.569-1.426-0.569
				S223.146,279.52,222.826,273.87z"/>
			<path style="fill:#160A5B;" d="M232.468,237.784l-1.987-0.3l-7.711,3.994l-11.296,2.193c0,0,2.731,11.351,2.765,14.903
				c0.034,3.574-0.643,8.773-0.887,10.634c-0.275,2.091,0.837,10.987,2.119,15.188c0.559,1.834,0.936,3.094,1.259,3.994
				c0.509,2.39,2.316,2.773,2.316,2.773s-4.429-13.718-4.04-21.742c0.383-7.911,1.518-14.495,1.314-16.025
				c0,0,12.864-3.955,15.275-12.258C231.969,239.842,232.254,238.734,232.468,237.784z"/>
			<path style="fill:#453C9E;" d="M210.186,181.617c0,0-0.915,0.77-1.112,1.554c-0.198,0.785-1.328,3.573-1.328,3.573
				s-5.378,7.138-6.347,9.325c-0.972,2.196-1.286,3.836-1.286,3.836l14.244,17.54c0,0-4.986,17.195-3.595,23.467
				c1.408,6.344,3.24,8.707,5.481,9.392c2.245,0.686,14.225-4.244,15.053-10.524c0.818-6.209,0.485-6.998,0.485-6.998
				s5.595,1.494,5.945,0.067c0.349-1.423-0.705-11.673-0.993-13.139c-0.287-1.462-1.148-17.632-1.148-17.632
				s-3.409-14.916-3.604-15.651c-0.195-0.734-2.311-6.339-5.035-6.654c-2.722-0.314-6.116,4.016-6.116,4.016L210.186,181.617z"/>
			<path style="fill:#F0F6FF;" d="M210.825,181.077c0,0-0.563,0.377-0.682,0.998c-0.12,0.621-0.585,1.849,0.428,3.131
				c1.016,1.285,9.218,7.978,12.539,13.607c3.357,5.689,7.509,12.032,7.859,13.346c0,0,1.513-9.004,0.145-13.149
				c-1.357-4.112-5.706-12.489-6.625-13.112c-0.918-0.622-6.561-1.156-6.561-1.156L210.825,181.077z"/>
			<path style="fill:#C4CCD6;" d="M219.298,190.131c0,0-0.445,0.734-0.576,1.3c0,0-2.383-1.216-3.379-1.664l3.657,2.542
				c0,0,0.216-1.33,0.398-1.529c0,0,2.087,1.595,2.382,2.304c0.295,0.71,4.152,10.402,4.152,10.402l2.026,3.31l0.523-0.802
				l-3.317-9.031c0,0-1.867-2.844-1.893-2.91c-0.026-0.066-1.289-3.12-1.289-3.12L219.298,190.131z"/>
			<path style="fill:#160A5B;" d="M219.298,190.131c0,0,1.214-2.267,3.562-2.18c0,0,0.675,2.798,0.864,3.934
				c0,0-1.515,0.652-2.126,0.123C220.989,191.48,219.298,190.131,219.298,190.131z"/>
			<path style="fill:#160A5B;" d="M223.368,191.281c0,0,6.038,7.445,8.146,16.432l-0.439,4.635l-3.177-5.661
				c0,0-5.203-13.001-6.413-15.382C220.281,188.934,223.368,191.281,223.368,191.281z"/>
			<path style="fill:#24126A;" d="M213.364,221.144c-0.404,1.59-0.88,3.567-1.326,5.687c0.004,0.005,8.94,11.669,17.663,16.42
				c0.849-1.087,1.434-2.254,1.595-3.472c0.433-3.282,0.543-5.046,0.552-5.982l-10.146-7.693L213.364,221.144z"/>
			<path style="fill:#24126A;" d="M212.757,204.007c0,0,2.583,3.525,3.272,3.844c0.689,0.319,6.276,10.117,7.408,11.963
				c1.136,1.852,4.146,4.446,4.146,4.446l-2.846,0.277L213.6,209.603L212.757,204.007z"/>
			<path style="fill:#4846A5;" d="M214.337,207.115c-1.12-2.821-2.876-5.298-5.136-7.189c-2.57-2.15-5.939-4.247-7.724-2.36
				c-3.136,3.316-1.802,9.56,2.558,15.406c4.408,5.91,11.355,14.324,12.996,15.739c1.575,1.358,15.05,11.495,22.776,15.284
				c0.575,0.282,1.246,0.066,1.589-0.499c1.066-1.759,3.274-5.427,4.064-6.935c0.161-0.307,0.064-0.697-0.22-0.88
				c-2.823-1.814-16.925-10.881-21.1-13.697c-0.638-0.431-1.16-1.024-1.521-1.727c-1.221-2.381-4.358-8.242-7.12-11.234
				c-0.492-0.533-0.869-1.167-1.14-1.852C214.351,207.152,214.344,207.134,214.337,207.115z"/>
			<path style="fill:#24126A;" d="M224.707,182.951l4.933,4.987l-1.273,0.442l1.625,0.945c0,0,3.946,9.321,3.086,19.879
				c0,0,1.959-8.303-2.285-20.072l-1.313-0.665l0.886-0.281L224.707,182.951z"/>
			<path style="fill:#FCD1C5;" d="M210.722,180.233c0.09,0.193,0.139,0.403,0.121,0.618c-0.037,0.441-0.089,1.188-0.049,1.507
				c0.059,0.467,3.152,5.676,9.472,5.721c0,0,0.758-1.129,0.909-1.35c0,0,2.557-0.119,3.622-1.051
				c1.063-0.931,0.408-2.561,0.408-2.561l0.154-1.952c0.019-0.236,0.123-0.456,0.294-0.618c0.225-0.213,0.521-0.528,0.575-0.758
				c0.055-0.234-0.095-0.639-0.217-0.915c-0.084-0.188-0.118-0.391-0.095-0.596c0.057-0.493,0.106-1.544-0.243-2.852
				c-0.1-0.377-0.104-0.775-0.008-1.154c0.157-0.622,0.38-1.541,0.406-1.868c0.04-0.512-0.827-1.872-0.866-2.409
				c-0.038-0.536-0.785-2.351-0.785-2.351s-4.698-8.724-12.283-4.948c-7.642,3.805-3.658,11.971-2.714,14.285
				c0,0,0.912,1.883,1.073,2.303C210.63,179.635,210.533,179.826,210.722,180.233z"/>
			<path style="fill:#AA8383;" d="M225.091,168.563c0.066,0.618-0.168,1.225-0.634,1.637c-0.918,0.812-2.75,2.146-5.167,2.467
				c-1.702,0.226-2.632,0.312-3.137,0.339c-0.34,0.019-0.611,0.294-0.63,0.639c-0.035,0.634-0.098,1.598-0.188,2.247
				c-0.036,0.26-0.112,0.512-0.225,0.75l-0.539,1.143c-0.134,0.284-0.426,0.456-0.733,0.433l-0.125-0.01
				c-0.343-0.026-0.618-0.29-0.664-0.636l-0.007-0.049c-0.119-0.894-0.643-1.694-1.443-2.071c-0.404-0.19-0.863-0.275-1.32-0.088
				c-1.308,0.538-0.765,1.808-0.765,1.808s-1.587-1.906-2.303-4.443c-0.712-2.525-0.547-7.092,2.755-9.48
				c3.286-2.377,7.579-3.34,11.242-0.764C224.235,164.614,224.943,167.18,225.091,168.563z"/>
			<path style="fill:#E2B1A6;" d="M212.589,179.258c-0.166-0.201,0.045,1.543-1.746,1.592c-0.037,0.441-0.089,1.188-0.049,1.507
				c0.059,0.467,3.152,5.676,9.472,5.721c0,0,0.758-1.129,0.909-1.35c0,0-5.801-2.817-6.829-4.096
				C213.321,181.356,212.755,179.459,212.589,179.258z"/>
			<path style="fill:#C4CCD6;" d="M222.86,187.951c0,0,1.72,0.197,2.524,0.626c0,0,0.228-0.892-0.231-1.856
				c0,0,0.515,0.414,0.509,2.468c0,0-2.525-0.82-2.715-0.874L222.86,187.951z"/>
			<path style="fill:#24126A;" d="M242.078,242.112c0,0-14.632-8.412-19.591-11.765c-4.927-3.332-18.791-17.474-21.628-22.918
				c0.728,1.818,1.801,3.701,3.176,5.544c4.408,5.91,11.355,14.324,12.996,15.739c1.575,1.358,15.05,11.495,22.776,15.284
				c0.574,0.282,1.246,0.066,1.589-0.499c0.207-0.341,0.457-0.755,0.731-1.211C242.097,242.178,242.078,242.112,242.078,242.112z"/>
			<path style="fill:#24126A;" d="M208.425,187.185l6.684,9.506l1.72-0.61l0.094,1.814c0,0,8,5.96,13.983,18.339
				c0,0-7.919-12.751-14.224-16.995l-0.574-1.821l-1.341,0.308L208.425,187.185z"/>
			<path style="fill:#936D6D;" d="M207.825,173.958c-0.073-0.025-0.141-0.043-0.209-0.062c0.783,1.932,1.899,3.276,1.899,3.276
				s-0.542-1.27,0.765-1.808c0.457-0.188,0.916-0.103,1.32,0.088c0.8,0.377,1.324,1.177,1.443,2.071l0.007,0.049
				c0.046,0.345,0.321,0.609,0.664,0.636l0.125,0.01c0.307,0.024,0.599-0.149,0.733-0.433l0.539-1.143
				c0.112-0.238,0.189-0.49,0.225-0.75c0.09-0.649,0.153-1.613,0.188-2.247C215.523,173.645,211.063,175.089,207.825,173.958z"/>
		</g>
	</g>
	<g>
		<polygon style="opacity:0.4;fill:#42E8E0;" points="287.809,161.685 284.527,159.791 284.527,166.106 287.809,168.001 		"/>
		<polygon style="opacity:0.6;fill:#42E8E0;" points="293.669,176.616 290.387,174.722 290.387,169.489 293.669,171.384 		"/>
		<polygon style="opacity:0.8;fill:#42E8E0;" points="299.529,170.136 296.247,168.241 296.247,172.872 299.529,174.767 		"/>
		<polygon style="fill:#42E8E0;" points="305.389,168.828 302.107,166.933 302.107,176.256 305.389,178.15 		"/>
		<polygon style="fill:#42E8E0;" points="311.249,168.121 307.967,166.227 307.967,179.639 311.249,181.534 		"/>
		<polygon style="opacity:0.8;fill:#42E8E0;" points="317.109,175.594 313.827,173.7 313.827,183.022 317.109,184.917 		"/>
		<polygon style="opacity:0.6;fill:#42E8E0;" points="322.969,176.572 319.687,174.677 319.687,186.406 322.969,188.3 		"/>
		<polygon style="opacity:0.4;fill:#42E8E0;" points="328.829,174.903 325.547,173.008 325.547,189.789 328.829,191.683 		"/>
	</g>
	<g>
		<path style="opacity:0.4;fill:#42E8E0;" d="M385.873,272.917L385.873,272.917c0.785,0.454,1.421,0.185,1.421-0.6l0.016-33.612
			c0-0.785-0.635-1.788-1.42-2.242l0,0c-0.785-0.453-1.421-0.185-1.421,0.6l-0.016,33.612
			C384.453,271.46,385.088,272.464,385.873,272.917z"/>
		<path style="opacity:0.6;fill:#42E8E0;" d="M380.799,269.985L380.799,269.985c0.785,0.453,1.421,0.185,1.421-0.6l0.011-21.972
			c0-0.785-0.635-1.788-1.42-2.242l0,0c-0.784-0.453-1.421-0.185-1.421,0.6l-0.011,21.972
			C379.379,268.528,380.015,269.532,380.799,269.985z"/>
		<path style="opacity:0.8;fill:#42E8E0;" d="M375.726,267.053L375.726,267.053c0.785,0.453,1.421,0.185,1.421-0.6l0.014-29.438
			c0-0.785-0.635-1.789-1.42-2.242l0,0c-0.784-0.453-1.421-0.185-1.421,0.6l-0.014,29.438
			C374.306,265.595,374.942,266.599,375.726,267.053z"/>
		<path style="fill:#42E8E0;" d="M370.653,264.12L370.653,264.12c0.785,0.453,1.421,0.185,1.421-0.6l0.009-18.28
			c0-0.785-0.635-1.788-1.42-2.242l0,0c-0.784-0.453-1.421-0.185-1.421,0.6l-0.009,18.28
			C369.233,262.663,369.868,263.667,370.653,264.12z"/>
		<path style="fill:#42E8E0;" d="M365.58,261.188L365.58,261.188c0.785,0.454,1.421,0.185,1.421-0.6l0.01-20.046
			c0-0.785-0.635-1.788-1.42-2.242l0,0c-0.785-0.453-1.421-0.185-1.421,0.6l-0.01,20.046
			C364.159,259.731,364.795,260.735,365.58,261.188z"/>
		<path style="opacity:0.8;fill:#42E8E0;" d="M360.506,258.256L360.506,258.256c0.785,0.453,1.421,0.185,1.421-0.6l0.006-13.298
			c0-0.785-0.635-1.788-1.42-2.242l0,0c-0.785-0.454-1.421-0.185-1.421,0.6l-0.007,13.298
			C359.086,256.798,359.722,257.802,360.506,258.256z"/>
		<path style="opacity:0.6;fill:#42E8E0;" d="M355.433,255.323L355.433,255.323c0.784,0.453,1.421,0.185,1.421-0.6l0.008-16.193
			c0-0.785-0.635-1.788-1.42-2.242v0c-0.785-0.453-1.421-0.185-1.421,0.6l-0.008,16.193
			C354.013,253.866,354.648,254.87,355.433,255.323z"/>
		<path style="opacity:0.4;fill:#42E8E0;" d="M350.36,252.391L350.36,252.391c0.785,0.453,1.421,0.185,1.421-0.6l0.003-5.918
			c0-0.785-0.635-1.788-1.42-2.242l0,0c-0.785-0.453-1.421-0.185-1.421,0.6l-0.003,5.918
			C348.939,250.934,349.575,251.938,350.36,252.391z"/>
	</g>
</g>
</svg>
