<?xml version="1.0" encoding="UTF-8"?>
<svg version="1.1" viewBox="0 0 1690 2048" width="454" height="550" xmlns="http://www.w3.org/2000/svg">
<path transform="translate(1049,22)" d="m0 0h149l181 1 18 1 7 2 1 2 1 138v989h28l72-1h54l83 1 20 1 5 2-4 8-9 10-11 14-12 14-8 11-10 13-14 17-24 32-14 18-12 16-11 14-11 13-11 14-7 8-8 10-13 16-9 11-12 15-10 13-11 14-12 15-12 16-13 16-12 16-7 9-13 16-11 14-14 17-20 26-12 15-13 17-11 13-18 22-7 9-11 14-28 36-10 12-8 10-11 14-11 13-10 13-22 28-13 17-13 16-7 9-22 28-14 18-12 15-13 17-11 13-8 11-10 13-12 16-14 17-9 10-3 1-1-3v-405l-1-1313v-226l1-21 3-7 4-2 9-1z" fill="#E90E16"/>
<path transform="translate(703,34)" d="m0 0 4 1 1 4v40l-1 35v1889l-4 7-8 2-27 1-241 1h-54l-64-1-7-3-2-2-1-4-1-38v-1049l-1-31-4-1-14-1-222-1-21-1v-4l6-8 7-7 11-14 14-19 10-12 7-9 10-13 7-8 12-14 9-9 11-14 8-10 28-36 8-11 11-13 11-14 14-18 14-17 12-16 20-26 13-16 11-14 9-12 8-10 14-17 13-17 8-10 14-17 14-18 11-14 13-16 11-14 12-15 10-13 11-14 13-16 7-9 8-10 13-16 8-10 13-17 12-15 12-16 11-14 13-17 14-18 10-13 8-11 22-28 12-16 9-10 9-11 11-13 13-18 12-15 12-16 10-13 9-14z" fill="#36AE2B"/>
<path transform="translate(1049,22)" d="m0 0h149l181 1 18 1 7 2 1 2 1 138v106l-1 862h-1l-1-62v-673l1-74h-2l-1-238-1-31-1-17-3-7-6-2-19-2-48-1h-109l-122 1-9 1-27 1-6 1-1-1-7 1h-16l-9 1h-14l-2 6v503l1 1208-1 218h2l1-9 2-2 6-25 1-4 3-1 2-5h2l2-4 7-3 3-1 3-3 10-2 4-2 9-5 6-5 4-3h2v-2l4-1 1-8 2-4h3l3-6 2-6 6-10 5-2v-2l5-3 7-8 2-6 2-1 7-12 5-6 4-8 1-4h2l2-4 6-7h2l2-5 2-3h2l1-6 4-5 2-5 9-3 2-6 5-8 5-3h2l2-5 5-5 3-2-1-1-2 1 2-5 6-3h2l1-4h2v-2l3-3 1-3 3-1 4-5 5-2 2-5 3-1v-8h2l1-3h2l1-5 4-1 1-2h2l4-8h2v-2h2l2-7 1-4 1-6 2-2 5 1 2-5v-3h2l1-3 5-2 8-10 1-2h2l2-5 2-3h3v-2h2l2-4-1-2 5-3 1-6 3-1 3-6 9-7 5-5 8-10 1-6 5-5 8-13 6-5 7-8 5-6h2v-2h2l2-4 4-6 2-4 6-4 4-6 3-5 2-2v-2l4-4h2l3-9 4-5h2l2-5 9-13 1-6 5-3 5-4 9-7 1-2 4-2 9-14 5-8h2l2-4 8-7 7-8 4-5 3-5 4-5 5-6 7-11 2-8 4-5 3-7 8-6 7-7 4-7 3-5 5-2 1-4 3-5 8-8 1-2 5-3 1-4 4-5 5-8h2v-2l5-5 6-4 5-6 7-6 1-2h2l3-12 3-6h2l2-4 8-10 5-5 7-10v-8l-1-10 3-7 1-6 7-3 2-5 9-2 10-4h11v-2l-11 1-18-1-6-1-4 1-4-1h-9l-12-1-152-1-21-1v-1l26-1 72-1h54l83 1 20 1 5 2-4 8-9 10-11 14-12 14-8 11-10 13-14 17-24 32-14 18-12 16-11 14-11 13-11 14-7 8-8 10-13 16-9 11-12 15-10 13-11 14-12 15-12 16-13 16-12 16-7 9-13 16-11 14-14 17-20 26-12 15-13 17-11 13-18 22-7 9-11 14-28 36-10 12-8 10-11 14-11 13-10 13-22 28-13 17-13 16-7 9-22 28-14 18-12 15-13 17-11 13-8 11-10 13-12 16-14 17-9 10-3 1-1-3v-405l-1-1313v-226l1-21 3-7 4-2 9-1z" fill="#D50B19"/>
<path transform="translate(1396,36)" d="m0 0 3 1 1 7 1 12 1 37v232h2v747l1 62 1 10v11l-2-1v-2h-2l1 4-1 3h-2v2l-4 1-3-3-3-17-1-10-1-3v-22l1-7 1-17v-25l-1-37v-39l1-25v-712l1-45v-21l1-19-1-22 1-22-1-5 1-13-1-13 1-8-2-10-3 1-1-4h-2l-4-5-2-5 1-7 7-5 6-2z" fill="#D50B19"/>
<path transform="translate(1049,22)" d="m0 0h149l181 1 18 1 7 2 1 2 1 138v106l-1 862h-1l-1-62v-673l1-74h-2l-1-238-1-31-1-17-3-7-6-2-19-2-48-1h-109l-122 1-9 1-27 1-6 1-1-1-7 1h-16l-9 1h-14l-2 6v503l1 1201-2 2-1-151-1-1313v-226l1-21 3-7 4-2 9-1z" fill="#DB2536"/>
<path transform="translate(1506,1154)" d="m0 0h54l83 1 20 1 5 2-4 8-9 10-11 14-12 14-8 11-10 13-14 17-24 32-14 18-12 16-11 14-11 13-11 14-7 8-8 10-13 16-9 11-12 15-10 13-11 14-12 15-12 16-13 16-12 16-7 9-13 16-11 14-14 17-20 26-12 15-13 17-11 13-18 22-7 9-11 14-28 36-10 12-8 10-11 14-11 13-10 13-22 28-13 17-13 16-7 9-22 28-14 18-12 15-13 17-11 13-8 11-10 13-12 16-14 17-9 10-3 1-1-3v-211l1-43h2v237l2 5h5l5-8 3-1 2-5 7-10 5-6v-2l5-2v-2l5-5 3-6 5-3 3-5 2-5 4-2 3-6 3-1 1-3 3-2 1-4h2l1-5 4-2 2-5 2-4 7-5 2-4h2l1-5h2v-2h3l1-4 4-2 2-6h2v-2h2l1-5h2v-3h3l2-5 4-6 7-11 6-5h2l1-5 6-6h2l1-3h2l2-6 2-5h2v-2h2l2-5 1-3 8-6 7-10 4-8h2l2-4 10-10h2l1-4 5-5 1-2 3-1 6-10 2-1 1-3 2-1 1-3 3-3 3-4 4-8 4-1 2-3h2l1-4 4-5 1-3 4-3 5-11h2l2-4 6-5 4-5 2-4 2-5h4v-3l5-5h2l3-10 11-10h2l1-5 2-3h2l2-4 6-5 3-4 2-1 1-4 4-1v-3h2l1-7 4-2 2-4h2v-3l2-1 1-3 7-7 1-3 5-5 7-10h2l2-5h2v-4l4-4 7-10h3l1-4 5-5 3-5 5-5 2-5h2l2-5 4-4h2l1-4h2l2-5 4-2 1-4h2v-4h2l2-4 3-1 1-4h2l2-4 6-6 1-3h2l1-4 1-3h2l1-4h2l2-5 1-2h2l2-5 4-2v-2l5-4 5-6 4-8h3l1-5 3-3h3l1-5h2l1-4 7-6 1-3 6-5 1-2h2l1-5 4-5 3-3 3-7 5-3 5-9h2l2-4 5-6 7-9v-2l5-5 1-3 3-4h2l2-4h2l2-4 3-4v-4h3v-2h3l2-4 4-6 3-1 2-4 6-8h2l2-5 6-7 2-5h2l2-4 3-5 6-4 1-2h2l2-5 5-6 2-1 2-4h2l1-4 3-6h2l2-5 3 1 2-4 4-7 5-4 1-4 5-4 2-5 6-7 2-4h2l2-4v-3h-4l-2-2h-3l-5-1-3 1-22-1-6-1-4 1-4-1h-9l-12-1-152-1-21-1v-1l26-1z" fill="#DC2D3E"/>
<path transform="translate(1404,139)" d="m0 0h1l1 27v106l-1 862h-1l-1-62v-874z" fill="#FDFDFD"/>
<path transform="translate(1049,22)" d="m0 0h149l181 1 18 1 7 2 1 2v111l-1 59-1 127h-1l-1-238-1-31-1-17-3-7-6-2-19-2-35-1v-2h-330v-1l9-1z" fill="#DD3041"/>
<path transform="translate(1016,24)" d="m0 0 320 1-1 2h-121l-122 1-9 1-27 1-6 1-1-1-7 1h-16l-9 1h-14l-3 3-1-2 3-7 2-1z" fill="#DB2133"/>
<path transform="translate(1049,22)" d="m0 0h149l181 1 18 1v1h-391v-1l9-1z" fill="#FDFDFD"/>
<path transform="translate(1402,417)" d="m0 0h1l1 655 1 62 1 16h-2l-1-6-1-26z" fill="#DB2133"/>
<path transform="translate(1e3 34)" d="m0 0 1 4v365l-2 1-1-124v-226l1-19z" fill="#E56672"/>
<path transform="translate(1402,1072)" d="m0 0h2l1 62 1 16h-2l-1-6-1-26z" fill="#DB2133"/>
<path transform="translate(1403,1134)" d="m0 0h2l1 16h-2l-1-6z" fill="#E14756"/>
</svg>
