<?xml version="1.0" encoding="UTF-8"?>
<svg version="1.1" viewBox="0 0 2048 2048" width="512" height="512" xmlns="http://www.w3.org/2000/svg">
<path transform="translate(970,291)" d="m0 0h45l33 4 26 6 26 8 24 10 25 13 19 12 17 13 11 9 12 11 17 17 9 11 11 14 10 15 10 17 10 19 11 27 6 19 6 25 4 27 2 31h101l23 2 18 4 18 6 23 12 14 10 14 12 11 12 11 15 10 18 8 20 5 20 3 25 1 36v13l-1 2h53l18 1 14 3 13 5 14 8 13 11 11 13 8 14 5 13 3 14 1 55v170l25 1 14 2 13 5 11 8 7 7 7 11 5 13 1 7v171l-3 14-7 13-11 12-11 7-10 4-17 3h-24v245l-1 15-5 17-8 16-7 10-9 10-12 9-12 7-14 5-14 3-12 1h-1189l-19-2-17-6-11-6-12-9-11-11-10-14-6-13-4-13-2-10v-955l5-21 7-16 10-15 12-13 13-10 12-7 16-6 9-2 9-1h247l1-19 4-33 6-27 11-33 9-20 12-23 13-20 9-12 13-16 11-12 12-12 8-7 15-12 20-14 19-11 16-8 15-7 28-10 24-6 23-4z" fill="#69BCF1"/>
<path transform="translate(434,599)" d="m0 0h247l2 20 3 28 5 26 7 25 8 22 9 20 12 22 12 18 8 11 12 15-2 1h-315v301l1 362 2 30 2 11 10 21 9 12 9 9 13 9 16 7 11 4 16 4 17 2 51 2 20 1h709l105 1h76l49-1 38-3 38-2 35-1 45 1 1 1 1 16v42l-1 15-5 17-8 16-7 10-9 10-12 9-12 7-14 5-14 3-12 1h-1189l-19-2-17-6-11-6-12-9-11-11-10-14-6-13-4-13-2-10v-955l5-21 7-16 10-15 12-13 13-10 12-7 16-6 9-2z" fill="#47A3FB"/>
<path transform="translate(970,291)" d="m0 0h45l33 4 26 6 26 8 24 10 25 13 19 12 17 13 11 9 12 11 17 17 9 11 11 14 10 15 10 17 10 19 11 27 6 19 6 25 4 27 2 31-2 33-3 24-5 23-5 18-7 19-7 16-8 16-6 11-10 16-12 17-11 12-6 2-390 1h-71l-6-4-8-11-7-9-10-15-10-17-8-16-9-20-10-30-6-26-4-28-2-26v-14l4-37 5-26 7-24 9-24 12-25 9-16 10-15 9-12 13-16 11-12 12-12 8-7 15-12 20-14 19-11 16-8 15-7 28-10 24-6 23-4z" fill="#F7C149"/>
<path transform="translate(1628,1113)" d="m0 0h87l26 1 14 2 13 5 11 8 7 7 7 11 5 13 1 7v171l-3 14-7 13-11 12-11 7-10 4-17 3h-54l-352-1-15-3-21-7-16-8-3-2v-2l-6-2-3-2v-2l-4-1-19-19-10-13-3-5v-2h-2l-5-10-1-6h-2l-6-18-4-20-1-8v-18l4-22 5-17 11-23h2l1-4 8-11 16-16 10-8 14-9 17-9 18-6 19-3z" fill="#4D4D79"/>
<path transform="translate(1222,805)" d="m0 0 4 1-7 2-68 1 1 4 13 2h19l35-2 11-2v-2l5-2h132l25 1 8 2 11 6 15 11v2l4 2 10 13 7 14 4 17 1 18-3 15-6 15-6 11-8 10-10 9-13 8-9 4-17 3-29 1h-482l-40-1-16-4-11-6-9-7-10-10-9-13-7-15-3-12-1-15 2-16 4-13 6-12 10-13 7-7 10-7 5-3 16-2 1-4-11-1v-1l19-1z" fill="#82D0FD"/>
<path transform="translate(970,291)" d="m0 0h45l33 4 26 6 26 8 24 10 25 13 19 12 17 13 11 9 12 11 17 17 9 11 11 14 10 15 10 17 10 19 11 27 6 19 6 25 4 27 2 31-2 33-3 24-5 23-5 18-7 19-7 16-8 16-6 11-10 16-12 17-11 12-6 2h-70l-23-1v-2l14-11 11-9 20-20 11-14 10-14 8-13 10-19 8-20 8-26 4-21 2-19v-26l-2-24-3-22-6-20-8-22-8-16-6-11-12-18-13-16-11-12-9-9-11-9-12-9-17-11-25-13-23-9-22-6-14-3-17-2h-34l-30 3-22 5-27 9-16 7-22 12-10 7-15 11h-2v2h-2v2l-8 7-7 6-7 8-7 7-15 20-12 20-8 16-8 19-8 26-4 23-2 19v28l3 24 4 19 6 21 9 22 8 16 8 14 10 14 7 9 11 13 17 17 11 9 9 7 4 4-25 2h-71l-6-4-8-11-7-9-10-15-10-17-8-16-9-20-10-30-6-26-4-28-2-26v-14l4-37 5-26 7-24 9-24 12-25 9-16 10-15 9-12 13-16 11-12 12-12 8-7 15-12 20-14 19-11 16-8 15-7 28-10 24-6 23-4z" fill="#F78716"/>
<path transform="translate(434,599)" d="m0 0h247l2 20 3 28 5 26 7 25 8 22 9 20 12 22 12 18 8 11 12 15-2 1h-98l-211-1-22-2-20-6-15-8-10-7-14-13-10-14-8-16-6-18-2-8v-24l5-21 7-16 10-15 12-13 13-10 12-7 16-6 9-2z" fill="#0F589E"/>
<path transform="translate(982,390)" d="m0 0h14l10 4 7 6 5 11 2 10v34l74 1 10 3 8 7 6 9 2 7v10l-3 10-9 10-10 4-1 1h-91l-73 1-7 4-5 6-2 6v14l4 8 8 6 4 1 102 1 19 3 13 5 15 8 13 12 7 9 8 14 5 15 2 11v20l-4 16-10 19-7 9-6 7-12 9-12 6-14 4-11 2-23 1v16l-1 36-3 10-4 6-1 3-19 1h-21l-3-1-2-5-4-6-2-9-1-18v-34h-77l-10-3-9-7-4-7-2-10 1-12 4-8 7-7 10-5 21-1h116l26-1 8-4 6-7 3-9v-8l-3-8-7-8-4-2-7-1h-94l-19-1-15-4-16-8-11-8-12-12-9-15-6-17-2-11v-19l3-15 5-12 4-8 7-9 8-9 13-9 14-7 12-4 18-2 20-1 1-38 2-9 3-6 7-6 8-4z" fill="#D06C04"/>
<path transform="translate(1303,599)" d="m0 0h102l23 2 18 4 18 6 23 12 14 10 14 12 11 12 11 15 10 18 8 20 5 20 3 25 1 36v13l-2 2-173 1-73-1h-86l-3-2 8-8 13-18 9-14 9-16 8-16 5-11 7-18 6-20 4-17 4-24 2-23z" fill="#3071AD"/>
<path transform="translate(461,599)" d="m0 0h219v1l-55 1 1 19 4 40 5 27 7 25 8 22 8 21-1 2h-104l-20-3-13-5-14-8-10-8-14-14-9-13-8-18-4-14-1-5v-22l4-21 7-24 1-2h-11z" fill="#3071AD"/>
<path transform="translate(1303,599)" d="m0 0h33l25 1 1 2-3 39-4 29-4 19-7 24-11 31-5 11v2h234l2 32v15l-2 2-173 1-73-1h-86l-3-2 8-8 13-18 9-14 9-16 8-16 5-11 7-18 6-20 4-17 4-24 2-23z" fill="#0F589D"/>
<path transform="translate(1238,1175)" d="m0 0 1 4v4l-2 8-1 29 2 17 4 18 8 20 10 18 8 10 9 10 8 8 15 11 12 7 20 8 16 4 8 1 30 1h312l70-1 16-2 9-3h3l-1 7-6 11-11 12-11 7-10 4-17 3h-54l-352-1-15-3-21-7-16-8-3-2v-2l-6-2-3-2v-2l-4-1-19-19-10-13-3-5v-2h-2l-5-10-1-6h-2l-6-18-4-20-1-8v-18l4-22 5-17 11-23h2l1-4z" fill="#353252"/>
<path transform="translate(1628,1113)" d="m0 0h87l26 1v1l-17 1 6 3v3h2v2l3 1v3h2l6 12 2 9v9l-4 11-6 8-7 6-8 3-8 1-78 1h-130l-14-4-10-9-6-12-2-10 1-10 4-9 7-9 9-7h2v-2l-157-1v-1z" fill="#656496"/>
<path transform="translate(1298,1118)" d="m0 0h18l-4 2-15 6-15 8-16 11-15 14-8 8-7 10-1 3h-2l-2 6-8 17-5 17-4 22v18l3 20 4 15 3 8v3h2l5 12 1 4h2l7 11 7 9 15 15 3 2v2l4 1 3 3 6 3v2l5 2 16 8 19 6 15 3 352 1 30 1v11l-1 1-2 12-7 2-12-2-1-1h-16l-15-2-23-1-46-1h-77l-71 2-29 2h-95l-26-5-22-8-17-9-13-10-6-5-5-5-1-3-3-1-7-8-10-14-8-14-8-21-5-22-2-13v-27l2-14 5-17 6-16 11-20 11-14 12-13 14-11 13-9 16-9 11-4h3v-2z" fill="#46A1F9"/>
<path transform="translate(1367,1201)" d="m0 0 15 1 11 4 11 7 7 7 6 10 4 12 1 13-2 10-4 10-5 8-7 8-11 7-11 4-4 1h-13l-12-3-12-6-9-8-7-11-4-11-1-6v-13l3-11 5-10 9-10 8-6 11-5z" fill="#B1C8D6"/>
<path transform="translate(442,951)" d="m0 0h1l1 509 1 20 4 24 3 12 4 8 7 11 4 5v2l4 2 9 8 15 8 16 6 20 4 16 2 16 1 12 1 17 1 77 1 823 1h24l13-1 73-1h30l21-1 3-1h16l10 1 16-1 4-1 1 4 6-2 1-2h3l1-2 1 2v6l-52-1-29 1-51 3-25 2-49 1h-76l-105-1h-714l-36-2-30-1-17-2-18-5-19-7-12-7-10-8-9-9-9-14-8-17-2-13-2-28-1-386z" fill="#5AB2F6"/>
<path transform="translate(1516,1409)" d="m0 0h81l51 1 25 2 4 1h17l3 1 9 2 7-1 1-3v10l-2 9h-2v5l-9-3v-2l-5-1v-2h-13l-11-3h-8l-3-2h-8l-13-3-10-1-26-1h-170l-24-1-2-1-21-1v-1l29-1 31-2z" fill="#5AB2F6"/>
<path transform="translate(982,390)" d="m0 0h14l10 4 7 6 5 11 2 10v34l-2-2-1-35-4-12-4-6-8-5-5-1h-16l-8 4-6 6-2 7-2 36-1 7-4 3-33 3-13 3-10 4-10 6-10 9-3 4h-2l-2 4-8 13-5 12-3 13v25l4 16 8 16 4 6v2h2l7 8 4 5-4-2-12-12-9-15-6-17-2-11v-19l3-15 5-12 4-8 7-9 8-9 13-9 14-7 12-4 18-2 20-1 1-38 2-9 3-6 7-6 8-4z" fill="#F88716"/>
<path transform="translate(1020,455)" d="m0 0 74 1 10 3 8 7 6 9 2 7v10l-3 10-9 10-10 4-1 1h-91l-73 1-7 4-5 6-2 6v14l1 5-2-1-2-6v-12l4-9 5-5 8-5 5-1 139-1h9l11-1 8-3 6-5 6-11v-13l-3-7-7-9-6-4-4-1h-58l-19-2z" fill="#F88716"/>
<path transform="translate(1365,804)" d="m0 0h198l-1 2-173 1-73-1v-1z" fill="#3071AD"/>
<path transform="translate(1034,808)" d="m0 0h79l-5 5h-43l-19-1-12-3z" fill="#6ABDF1"/>
<path transform="translate(863,807)" d="m0 0 65 1-1 2-7 2-19 1h-13l-6-1v-2h-9l-3 2h-11l-1-4z" fill="#6ABDF1"/>
<path transform="translate(1105,703)" d="m0 0 1 4-7 9-12 12-4 1v-3l2-4 8-6 3-1 2-4z" fill="#F88716"/>
<path transform="translate(804,808)" d="m0 0h9l-4 5-3 2-7-1 2-1v-2h2z" fill="#5AB2F6"/>
<path transform="translate(1298,1118)" d="m0 0h18l-4 2-11 2-9-1 4-2z" fill="#57B0F6"/>
<path transform="translate(763,808)" d="m0 0 12 1 2 4-8 1-6-2z" fill="#5AB2F6"/>
<path transform="translate(965,808)" d="m0 0h9l-5 5-5-1 2-2z" fill="#6ABDF1"/>
</svg>
